<?xml version="1.0" encoding="UTF-8" standalone="no"?>
<!-- Created with Inkscape (http://www.inkscape.org/) -->
<svg
   xmlns:dc="http://purl.org/dc/elements/1.1/"
   xmlns:cc="http://web.resource.org/cc/"
   xmlns:rdf="http://www.w3.org/1999/02/22-rdf-syntax-ns#"
   xmlns:svg="http://www.w3.org/2000/svg"
   xmlns="http://www.w3.org/2000/svg"
   xmlns:xlink="http://www.w3.org/1999/xlink"
   xmlns:sodipodi="http://sodipodi.sourceforge.net/DTD/sodipodi-0.dtd"
   xmlns:inkscape="http://www.inkscape.org/namespaces/inkscape"
   width="744.09448819"
   height="1052.3622047"
   id="svg2"
   sodipodi:version="0.32"
   inkscape:version="0.45.1"
   sodipodi:docbase="C:\Spheroid\opCPP\Art\logos"
   sodipodi:docname="opCpp-Button.svg"
   inkscape:output_extension="org.inkscape.output.svg.inkscape">
  <defs
     id="defs4">
    <linearGradient
       id="linearGradient3862">
      <stop
         style="stop-color:#001c33;stop-opacity:1;"
         offset="0"
         id="stop3864" />
      <stop
         style="stop-color:#a4c1b8;stop-opacity:1;"
         offset="1"
         id="stop3866" />
    </linearGradient>
    <linearGradient
       id="linearGradient3322">
      <stop
         id="stop3324"
         offset="0"
         style="stop-color:#001c33;stop-opacity:1;" />
      <stop
         id="stop3326"
         offset="1"
         style="stop-color:#0087f3;stop-opacity:1;" />
    </linearGradient>
    <linearGradient
       id="linearGradient3242">
      <stop
         style="stop-color:#ffffff;stop-opacity:1;"
         offset="0"
         id="stop3244" />
      <stop
         style="stop-color:#ffffff;stop-opacity:0.6082474;"
         offset="1"
         id="stop3246" />
    </linearGradient>
    <linearGradient
       id="linearGradient3226">
      <stop
         style="stop-color:#ffffff;stop-opacity:1;"
         offset="0"
         id="stop3228" />
      <stop
         id="stop3240"
         offset="0.5"
         style="stop-color:#ffffff;stop-opacity:1;" />
      <stop
         style="stop-color:#d7d7d7;stop-opacity:1;"
         offset="1"
         id="stop3230" />
    </linearGradient>
    <linearGradient
       id="linearGradient3210">
      <stop
         style="stop-color:#004e8c;stop-opacity:1;"
         offset="0"
         id="stop3212" />
      <stop
         style="stop-color:#000000;stop-opacity:1;"
         offset="1"
         id="stop3214" />
    </linearGradient>
    <linearGradient
       id="linearGradient3204">
      <stop
         id="stop3206"
         offset="0"
         style="stop-color:#004e8c;stop-opacity:1;" />
      <stop
         id="stop3208"
         offset="1"
         style="stop-color:#004e8c;stop-opacity:1;" />
    </linearGradient>
    <linearGradient
       inkscape:collect="always"
       xlink:href="#linearGradient3322"
       id="linearGradient3216"
       x1="226.9509"
       y1="607.15894"
       x2="230.52232"
       y2="320.62167"
       gradientUnits="userSpaceOnUse"
       gradientTransform="translate(-123.81292,-580.52803)" />
    <linearGradient
       inkscape:collect="always"
       xlink:href="#linearGradient3322"
       id="linearGradient3224"
       x1="243.5004"
       y1="526.68634"
       x2="242.15848"
       y2="190.28462"
       gradientUnits="userSpaceOnUse"
       gradientTransform="translate(-123.81292,-580.52803)" />
    <linearGradient
       inkscape:collect="always"
       xlink:href="#linearGradient3204"
       id="linearGradient3268"
       x1="359.75095"
       y1="407.43689"
       x2="589.50946"
       y2="407.43689"
       gradientUnits="userSpaceOnUse" />
    <linearGradient
       inkscape:collect="always"
       xlink:href="#linearGradient3322"
       id="linearGradient3289"
       x1="432.45432"
       y1="479.51862"
       x2="432.45432"
       y2="407.42273"
       gradientUnits="userSpaceOnUse"
       gradientTransform="translate(-123.81292,-580.52803)" />
    <radialGradient
       inkscape:collect="always"
       xlink:href="#linearGradient3204"
       id="radialGradient3297"
       cx="475.13528"
       cy="407.94196"
       fx="475.13528"
       fy="407.94196"
       r="122.07925"
       gradientTransform="matrix(1,0,0,0.5300824,0,191.69912)"
       gradientUnits="userSpaceOnUse" />
    <linearGradient
       inkscape:collect="always"
       xlink:href="#linearGradient3226"
       id="linearGradient3312"
       x1="469.22357"
       y1="393.73752"
       x2="469.43024"
       y2="452.89374"
       gradientUnits="userSpaceOnUse"
       gradientTransform="translate(-123.81292,-580.52803)" />
    <linearGradient
       inkscape:collect="always"
       xlink:href="#linearGradient3226"
       id="linearGradient3328"
       x1="231.78159"
       y1="390.50003"
       x2="231.78159"
       y2="470.00162"
       gradientUnits="userSpaceOnUse"
       gradientTransform="translate(-123.81292,-580.52803)" />
    <linearGradient
       inkscape:collect="always"
       xlink:href="#linearGradient3226"
       id="linearGradient3486"
       x1="430.25098"
       y1="207.6252"
       x2="430.25098"
       y2="264.76807"
       gradientUnits="userSpaceOnUse"
       gradientTransform="matrix(0.5552494,0,0,0.5552494,-91.520238,73.201115)" />
    <linearGradient
       inkscape:collect="always"
       xlink:href="#linearGradient3322"
       id="linearGradient3494"
       x1="436.94589"
       y1="287.12015"
       x2="436.94589"
       y2="219.97728"
       gradientUnits="userSpaceOnUse"
       gradientTransform="matrix(0.5552494,0,0,0.5552494,-91.520238,73.201115)" />
    <linearGradient
       inkscape:collect="always"
       xlink:href="#linearGradient3226"
       id="linearGradient3528"
       gradientUnits="userSpaceOnUse"
       x1="231.78159"
       y1="390.50003"
       x2="231.78159"
       y2="470.00162"
       gradientTransform="matrix(0.2553832,0,0,0.2553832,614.67452,669.53801)" />
    <linearGradient
       inkscape:collect="always"
       xlink:href="#linearGradient3322"
       id="linearGradient3586"
       gradientUnits="userSpaceOnUse"
       gradientTransform="matrix(0.244085,0,0,0.244085,626.10214,661.4084)"
       x1="243.5004"
       y1="526.68634"
       x2="242.15848"
       y2="190.28462" />
    <linearGradient
       inkscape:collect="always"
       xlink:href="#linearGradient3322"
       id="linearGradient3588"
       gradientUnits="userSpaceOnUse"
       gradientTransform="matrix(0.244085,0,0,0.244085,626.10214,661.4084)"
       x1="226.9509"
       y1="607.15894"
       x2="230.52232"
       y2="320.62167" />
    <linearGradient
       inkscape:collect="always"
       xlink:href="#linearGradient3226"
       id="linearGradient3590"
       gradientUnits="userSpaceOnUse"
       gradientTransform="matrix(0.244085,0,0,0.244085,616.10216,671.40841)"
       x1="231.78159"
       y1="390.50003"
       x2="231.78159"
       y2="470.00162" />
    <linearGradient
       inkscape:collect="always"
       xlink:href="#linearGradient3226"
       id="linearGradient3592"
       gradientUnits="userSpaceOnUse"
       gradientTransform="matrix(0.244085,0,0,0.244085,626.10216,661.40841)"
       x1="469.22357"
       y1="393.73752"
       x2="469.43024"
       y2="452.89374" />
    <linearGradient
       inkscape:collect="always"
       xlink:href="#linearGradient3322"
       id="linearGradient3594"
       gradientUnits="userSpaceOnUse"
       gradientTransform="matrix(0.244085,0,0,0.244085,626.10214,661.4084)"
       x1="432.45432"
       y1="479.51862"
       x2="432.45432"
       y2="407.42273" />
    <linearGradient
       inkscape:collect="always"
       xlink:href="#linearGradient3226"
       id="linearGradient3610"
       gradientUnits="userSpaceOnUse"
       gradientTransform="matrix(0.244085,0,0,0.244085,626.10216,661.40841)"
       x1="231.78159"
       y1="390.50003"
       x2="231.78159"
       y2="470.00162" />
    <linearGradient
       inkscape:collect="always"
       xlink:href="#linearGradient3322"
       id="linearGradient3614"
       gradientUnits="userSpaceOnUse"
       gradientTransform="translate(-57.142857,-130)"
       x1="226.9509"
       y1="607.15894"
       x2="230.52232"
       y2="320.62167" />
    <linearGradient
       inkscape:collect="always"
       xlink:href="#linearGradient3322"
       id="linearGradient3624"
       gradientUnits="userSpaceOnUse"
       gradientTransform="translate(-57.142857,-130)"
       x1="243.5004"
       y1="526.68634"
       x2="242.15848"
       y2="190.28462" />
    <linearGradient
       inkscape:collect="always"
       xlink:href="#linearGradient3322"
       id="linearGradient3660"
       gradientUnits="userSpaceOnUse"
       gradientTransform="matrix(0.5552494,0,0,0.5552494,-245.32763,-30.7248)"
       x1="243.5004"
       y1="526.68634"
       x2="242.15848"
       y2="190.28462" />
    <linearGradient
       inkscape:collect="always"
       xlink:href="#linearGradient3322"
       id="linearGradient3662"
       gradientUnits="userSpaceOnUse"
       gradientTransform="matrix(0.5552494,0,0,0.5552494,-245.32763,-30.7248)"
       x1="226.9509"
       y1="607.15894"
       x2="230.52232"
       y2="320.62167" />
    <linearGradient
       inkscape:collect="always"
       xlink:href="#linearGradient3226"
       id="linearGradient3664"
       gradientUnits="userSpaceOnUse"
       gradientTransform="matrix(0.5552494,0,0,0.5552494,-245.32763,-30.724801)"
       x1="231.78159"
       y1="390.50003"
       x2="231.78159"
       y2="470.00162" />
    <linearGradient
       inkscape:collect="always"
       xlink:href="#linearGradient3226"
       id="linearGradient3712"
       gradientUnits="userSpaceOnUse"
       gradientTransform="matrix(0.5552494,0,0,0.5552494,-92.432473,358.9922)"
       x1="430.25098"
       y1="207.6252"
       x2="430.25098"
       y2="264.76807" />
    <linearGradient
       inkscape:collect="always"
       xlink:href="#linearGradient3322"
       id="linearGradient3714"
       gradientUnits="userSpaceOnUse"
       gradientTransform="matrix(0.5552494,0,0,0.5552494,-92.432473,358.9922)"
       x1="436.94589"
       y1="287.12015"
       x2="436.94589"
       y2="219.97728" />
    <linearGradient
       inkscape:collect="always"
       xlink:href="#linearGradient3322"
       id="linearGradient3716"
       gradientUnits="userSpaceOnUse"
       gradientTransform="matrix(0.5552494,0,0,0.5552494,-51.280433,249.00537)"
       x1="243.5004"
       y1="526.68634"
       x2="242.15848"
       y2="190.28462" />
    <linearGradient
       inkscape:collect="always"
       xlink:href="#linearGradient3322"
       id="linearGradient3718"
       gradientUnits="userSpaceOnUse"
       gradientTransform="matrix(0.5552494,0,0,0.5552494,-51.280433,249.00537)"
       x1="226.9509"
       y1="607.15894"
       x2="230.52232"
       y2="320.62167" />
    <linearGradient
       inkscape:collect="always"
       xlink:href="#linearGradient3226"
       id="linearGradient3720"
       gradientUnits="userSpaceOnUse"
       gradientTransform="matrix(0.5552494,0,0,0.5552494,-51.280433,249.00537)"
       x1="231.78159"
       y1="390.50003"
       x2="231.78159"
       y2="470.00162" />
    <linearGradient
       inkscape:collect="always"
       xlink:href="#linearGradient3226"
       id="linearGradient3734"
       gradientUnits="userSpaceOnUse"
       gradientTransform="matrix(0.5552494,0,0,0.5552494,-92.432473,-661.35854)"
       x1="430.25098"
       y1="207.6252"
       x2="430.25098"
       y2="264.76807" />
    <linearGradient
       inkscape:collect="always"
       xlink:href="#linearGradient3322"
       id="linearGradient3736"
       gradientUnits="userSpaceOnUse"
       gradientTransform="matrix(0.5552494,0,0,0.5552494,-92.432473,-661.35854)"
       x1="436.94589"
       y1="287.12015"
       x2="436.94589"
       y2="219.97728" />
    <linearGradient
       inkscape:collect="always"
       xlink:href="#linearGradient3242"
       id="linearGradient3746"
       x1="297.995"
       y1="573.24518"
       x2="297.995"
       y2="423.34448"
       gradientUnits="userSpaceOnUse"
       gradientTransform="matrix(1,0,0,0.5718954,0,228.47897)" />
    <linearGradient
       inkscape:collect="always"
       xlink:href="#linearGradient3322"
       id="linearGradient3754"
       gradientUnits="userSpaceOnUse"
       gradientTransform="matrix(0.5552494,0,0,0.5552494,61.219567,241.50537)"
       x1="243.5004"
       y1="526.68634"
       x2="242.15848"
       y2="190.28462" />
    <linearGradient
       inkscape:collect="always"
       xlink:href="#linearGradient3322"
       id="linearGradient3784"
       gradientUnits="userSpaceOnUse"
       gradientTransform="matrix(0.5552494,0,0,0.5552494,-199.77286,250.01552)"
       x1="243.5004"
       y1="526.68634"
       x2="242.15848"
       y2="190.28462" />
    <linearGradient
       inkscape:collect="always"
       xlink:href="#linearGradient3322"
       id="linearGradient3786"
       gradientUnits="userSpaceOnUse"
       gradientTransform="matrix(0.5552494,0,0,0.5552494,-199.77286,250.01552)"
       x1="226.9509"
       y1="607.15894"
       x2="230.52232"
       y2="320.62167" />
    <linearGradient
       inkscape:collect="always"
       xlink:href="#linearGradient3226"
       id="linearGradient3788"
       gradientUnits="userSpaceOnUse"
       gradientTransform="matrix(0.5552494,0,0,0.5552494,-199.77286,250.01552)"
       x1="231.78159"
       y1="390.50003"
       x2="231.78159"
       y2="470.00162" />
    <linearGradient
       inkscape:collect="always"
       xlink:href="#linearGradient3226"
       id="linearGradient3834"
       gradientUnits="userSpaceOnUse"
       gradientTransform="matrix(0.5552494,0,0,0.5552494,-706.8657,155.20112)"
       x1="430.25098"
       y1="207.6252"
       x2="430.25098"
       y2="264.76807" />
    <linearGradient
       inkscape:collect="always"
       xlink:href="#linearGradient3322"
       id="linearGradient3836"
       gradientUnits="userSpaceOnUse"
       gradientTransform="matrix(0.5552494,0,0,0.5552494,-706.8657,155.20112)"
       x1="436.94589"
       y1="287.12015"
       x2="436.94589"
       y2="219.97728" />
    <linearGradient
       inkscape:collect="always"
       xlink:href="#linearGradient3242"
       id="linearGradient3840"
       gradientUnits="userSpaceOnUse"
       gradientTransform="matrix(1,0,0,0.5718954,15.1523,-52.596011)"
       x1="542.4519"
       y1="578.54413"
       x2="252.53813"
       y2="575.24835" />
    <linearGradient
       inkscape:collect="always"
       xlink:href="#linearGradient3226"
       id="linearGradient3858"
       gradientUnits="userSpaceOnUse"
       gradientTransform="matrix(0.226216,0,0,0.226216,50.999923,233.19684)"
       x1="430.25098"
       y1="207.6252"
       x2="430.25098"
       y2="264.76807" />
    <linearGradient
       inkscape:collect="always"
       xlink:href="#linearGradient3862"
       id="linearGradient3860"
       gradientUnits="userSpaceOnUse"
       gradientTransform="matrix(0.226216,0,0,0.226216,50.999931,233.19677)"
       x1="436.94589"
       y1="287.12015"
       x2="436.94589"
       y2="219.97728" />
    <linearGradient
       inkscape:collect="always"
       xlink:href="#linearGradient3322"
       id="linearGradient3898"
       gradientUnits="userSpaceOnUse"
       gradientTransform="matrix(0.5552494,0,0,0.5552494,-51.280433,-38.99463)"
       x1="243.5004"
       y1="526.68634"
       x2="242.15848"
       y2="190.28462" />
    <linearGradient
       inkscape:collect="always"
       xlink:href="#linearGradient3322"
       id="linearGradient3900"
       gradientUnits="userSpaceOnUse"
       gradientTransform="matrix(0.5552494,0,0,0.5552494,-51.280433,-38.99463)"
       x1="226.9509"
       y1="607.15894"
       x2="230.52232"
       y2="320.62167" />
    <linearGradient
       inkscape:collect="always"
       xlink:href="#linearGradient3226"
       id="linearGradient3902"
       gradientUnits="userSpaceOnUse"
       gradientTransform="matrix(0.5552494,0,0,0.5552494,-51.280433,-38.99463)"
       x1="231.78159"
       y1="390.50003"
       x2="231.78159"
       y2="470.00162" />
    <linearGradient
       inkscape:collect="always"
       xlink:href="#linearGradient3322"
       id="linearGradient3984"
       gradientUnits="userSpaceOnUse"
       gradientTransform="matrix(0.951034,0,0,0.951034,-603.62816,-565.25074)"
       x1="243.5004"
       y1="526.68634"
       x2="242.15848"
       y2="190.28462" />
    <linearGradient
       inkscape:collect="always"
       xlink:href="#linearGradient3322"
       id="linearGradient3986"
       gradientUnits="userSpaceOnUse"
       gradientTransform="matrix(0.951034,0,0,0.951034,-603.62816,-565.25074)"
       x1="226.9509"
       y1="607.15894"
       x2="230.52232"
       y2="320.62167" />
    <linearGradient
       inkscape:collect="always"
       xlink:href="#linearGradient3226"
       id="linearGradient3988"
       gradientUnits="userSpaceOnUse"
       gradientTransform="matrix(0.9510339,0,0,0.9510339,-603.62817,-565.25075)"
       x1="231.78159"
       y1="390.50003"
       x2="231.78159"
       y2="470.00162" />
    <linearGradient
       inkscape:collect="always"
       xlink:href="#linearGradient3226"
       id="linearGradient3998"
       gradientUnits="userSpaceOnUse"
       gradientTransform="translate(24.758513,-34.813742)"
       x1="469.22357"
       y1="393.73752"
       x2="469.43024"
       y2="452.89374" />
    <linearGradient
       inkscape:collect="always"
       xlink:href="#linearGradient3322"
       id="linearGradient4000"
       gradientUnits="userSpaceOnUse"
       gradientTransform="translate(24.758513,-34.813742)"
       x1="432.45432"
       y1="479.51862"
       x2="432.45432"
       y2="407.42273" />
    <linearGradient
       inkscape:collect="always"
       xlink:href="#linearGradient3226"
       id="linearGradient4058"
       gradientUnits="userSpaceOnUse"
       gradientTransform="matrix(0.5552494,0,0,0.5552494,-92.432473,-961.3585)"
       x1="430.25098"
       y1="207.6252"
       x2="430.25098"
       y2="264.76807" />
    <linearGradient
       inkscape:collect="always"
       xlink:href="#linearGradient3322"
       id="linearGradient4060"
       gradientUnits="userSpaceOnUse"
       gradientTransform="matrix(0.5552494,0,0,0.5552494,-92.432473,-961.3585)"
       x1="436.94589"
       y1="287.12015"
       x2="436.94589"
       y2="219.97728" />
    <linearGradient
       inkscape:collect="always"
       xlink:href="#linearGradient3242"
       id="linearGradient4062"
       gradientUnits="userSpaceOnUse"
       gradientTransform="matrix(1,0,0,0.5718954,0,528.47897)"
       x1="297.995"
       y1="573.24518"
       x2="297.995"
       y2="423.34448" />
    <linearGradient
       inkscape:collect="always"
       xlink:href="#linearGradient3226"
       id="linearGradient4064"
       gradientUnits="userSpaceOnUse"
       gradientTransform="matrix(0.1742452,0,0,0.1742452,55.35544,911.21612)"
       x1="430.25098"
       y1="207.6252"
       x2="430.25098"
       y2="264.76807" />
    <linearGradient
       inkscape:collect="always"
       xlink:href="#linearGradient3322"
       id="linearGradient4066"
       gradientUnits="userSpaceOnUse"
       gradientTransform="matrix(0.1742452,0,0,0.1742452,55.355446,911.21607)"
       x1="436.94589"
       y1="287.12015"
       x2="436.94589"
       y2="219.97728" />
    <linearGradient
       inkscape:collect="always"
       xlink:href="#linearGradient3322"
       id="linearGradient4068"
       gradientUnits="userSpaceOnUse"
       gradientTransform="matrix(0.5552494,0,0,0.5552494,-51.280433,549.00537)"
       x1="243.5004"
       y1="526.68634"
       x2="242.15848"
       y2="190.28462" />
    <linearGradient
       inkscape:collect="always"
       xlink:href="#linearGradient3322"
       id="linearGradient4070"
       gradientUnits="userSpaceOnUse"
       gradientTransform="matrix(0.5552494,0,0,0.5552494,-51.280433,549.00537)"
       x1="226.9509"
       y1="607.15894"
       x2="230.52232"
       y2="320.62167" />
    <linearGradient
       inkscape:collect="always"
       xlink:href="#linearGradient3226"
       id="linearGradient4072"
       gradientUnits="userSpaceOnUse"
       gradientTransform="matrix(0.5552494,0,0,0.5552494,-51.280433,549.00537)"
       x1="231.78159"
       y1="390.50003"
       x2="231.78159"
       y2="470.00162" />
    <linearGradient
       inkscape:collect="always"
       xlink:href="#linearGradient3226"
       id="linearGradient4082"
       gradientUnits="userSpaceOnUse"
       gradientTransform="matrix(0.5579978,0,0,0.5579978,-43.881725,545.61754)"
       x1="469.22357"
       y1="393.73752"
       x2="469.43024"
       y2="452.89374" />
    <linearGradient
       inkscape:collect="always"
       xlink:href="#linearGradient3322"
       id="linearGradient4084"
       gradientUnits="userSpaceOnUse"
       gradientTransform="matrix(0.5579978,0,0,0.5579978,-43.881715,545.61756)"
       x1="432.45432"
       y1="479.51862"
       x2="432.45432"
       y2="407.42273" />
    <linearGradient
       inkscape:collect="always"
       xlink:href="#linearGradient3322"
       id="linearGradient4149"
       gradientUnits="userSpaceOnUse"
       gradientTransform="matrix(0.5552494,0,0,0.5552494,-51.280433,249.00537)"
       x1="243.5004"
       y1="526.68634"
       x2="242.15848"
       y2="190.28462" />
    <linearGradient
       inkscape:collect="always"
       xlink:href="#linearGradient3322"
       id="linearGradient4151"
       gradientUnits="userSpaceOnUse"
       gradientTransform="matrix(0.5552494,0,0,0.5552494,-51.280433,249.00537)"
       x1="226.9509"
       y1="607.15894"
       x2="230.52232"
       y2="320.62167" />
    <linearGradient
       inkscape:collect="always"
       xlink:href="#linearGradient3226"
       id="linearGradient4153"
       gradientUnits="userSpaceOnUse"
       gradientTransform="matrix(0.5552494,0,0,0.5552494,-51.280433,249.00537)"
       x1="231.78159"
       y1="390.50003"
       x2="231.78159"
       y2="470.00162" />
    <linearGradient
       inkscape:collect="always"
       xlink:href="#linearGradient3322"
       id="linearGradient4185"
       gradientUnits="userSpaceOnUse"
       gradientTransform="matrix(0.5552494,0,0,0.5552494,-51.280433,-34.99463)"
       x1="243.5004"
       y1="526.68634"
       x2="242.15848"
       y2="190.28462" />
    <linearGradient
       inkscape:collect="always"
       xlink:href="#linearGradient3322"
       id="linearGradient4187"
       gradientUnits="userSpaceOnUse"
       gradientTransform="matrix(0.5552494,0,0,0.5552494,-51.280433,-34.99463)"
       x1="226.9509"
       y1="607.15894"
       x2="230.52232"
       y2="320.62167" />
    <linearGradient
       inkscape:collect="always"
       xlink:href="#linearGradient3226"
       id="linearGradient4189"
       gradientUnits="userSpaceOnUse"
       gradientTransform="matrix(0.5552494,0,0,0.5552494,-51.280433,-34.99463)"
       x1="231.78159"
       y1="390.50003"
       x2="231.78159"
       y2="470.00162" />
    <linearGradient
       inkscape:collect="always"
       xlink:href="#linearGradient3322"
       id="linearGradient4221"
       gradientUnits="userSpaceOnUse"
       gradientTransform="matrix(0.9278231,0,0,0.9173125,-796.53877,-552.94)"
       x1="243.5004"
       y1="526.68634"
       x2="242.15848"
       y2="190.28462" />
    <linearGradient
       inkscape:collect="always"
       xlink:href="#linearGradient3322"
       id="linearGradient4223"
       gradientUnits="userSpaceOnUse"
       gradientTransform="matrix(0.9278231,0,0,0.9173125,-796.53877,-552.94)"
       x1="226.9509"
       y1="607.15894"
       x2="230.52232"
       y2="320.62167" />
    <linearGradient
       inkscape:collect="always"
       xlink:href="#linearGradient3226"
       id="linearGradient4225"
       gradientUnits="userSpaceOnUse"
       gradientTransform="matrix(0.9225528,0,0,0.9225528,-792.01488,-556.09906)"
       x1="231.78159"
       y1="390.50003"
       x2="231.78159"
       y2="470.00162" />
    <linearGradient
       inkscape:collect="always"
       xlink:href="#linearGradient3322"
       id="linearGradient4257"
       gradientUnits="userSpaceOnUse"
       gradientTransform="matrix(0.9568722,0,0,0.9568722,32.202773,-14.944302)"
       x1="243.5004"
       y1="526.68634"
       x2="242.15848"
       y2="190.28462" />
    <linearGradient
       inkscape:collect="always"
       xlink:href="#linearGradient3322"
       id="linearGradient4259"
       gradientUnits="userSpaceOnUse"
       gradientTransform="matrix(0.9568722,0,0,0.9568722,32.202773,-14.944302)"
       x1="226.9509"
       y1="607.15894"
       x2="230.52232"
       y2="320.62167" />
    <linearGradient
       inkscape:collect="always"
       xlink:href="#linearGradient3226"
       id="linearGradient4261"
       gradientUnits="userSpaceOnUse"
       gradientTransform="matrix(0.9568722,0,0,0.9568722,32.202773,-14.944292)"
       x1="231.78159"
       y1="390.50003"
       x2="231.78159"
       y2="470.00162" />
  </defs>
  <sodipodi:namedview
     id="base"
     pagecolor="#ffffff"
     bordercolor="#666666"
     borderopacity="1.0"
     gridtolerance="10000"
     guidetolerance="10"
     objecttolerance="10"
     inkscape:pageopacity="0.0"
     inkscape:pageshadow="2"
     inkscape:zoom="0.7"
     inkscape:cx="247.42701"
     inkscape:cy="694.73797"
     inkscape:document-units="px"
     inkscape:current-layer="layer1"
     showgrid="false"
     inkscape:window-width="1280"
     inkscape:window-height="968"
     inkscape:window-x="1276"
     inkscape:window-y="-4" />
  <metadata
     id="metadata7">
    <rdf:RDF>
      <cc:Work
         rdf:about="">
        <dc:format>image/svg+xml</dc:format>
        <dc:type
           rdf:resource="http://purl.org/dc/dcmitype/StillImage" />
      </cc:Work>
    </rdf:RDF>
  </metadata>
  <g
     inkscape:label="Layer 1"
     inkscape:groupmode="layer"
     id="layer1"
     style="opacity:1">
    <text
       id="text3990"
       y="430.64026"
       x="376.79614"
       style="font-size:182.57653809px;font-style:normal;font-weight:normal;fill:#000000;fill-opacity:1;stroke:#000000;stroke-width:22.10000038;stroke-linecap:butt;stroke-linejoin:round;stroke-miterlimit:4;stroke-dasharray:none;stroke-opacity:1;font-family:Bitstream Vera Sans"
       xml:space="preserve"><tspan
         style="fill:#000000;fill-opacity:1;stroke:#000000;stroke-width:22.10000038;stroke-linejoin:round;stroke-miterlimit:4;stroke-dasharray:none;stroke-opacity:1;font-family:Alexandria"
         y="430.64026"
         x="376.79614"
         id="tspan3992"
         sodipodi:role="line">C++</tspan></text>
    <path
       id="path3994"
       d="M 450.7394,397.77783 L 450.7394,430.64027 L 393.22735,430.64027 C 390.54916,430.64027 388.48017,429.84908 387.02037,428.26669 C 385.68313,426.80688 385.01452,424.85861 385.01452,422.42187 L 385.01452,323.83456 C 385.01452,321.64309 385.74442,319.69482 387.20424,317.98974 C 388.66404,316.40747 390.67174,315.61627 393.22735,315.61616 L 450.7394,315.61616 L 450.7394,348.4786 L 434.30818,348.4786 L 434.30818,332.04738 L 401.44574,332.04738 L 401.44574,414.20905 L 434.30818,414.20905 L 434.30818,397.77783 L 450.7394,397.77783 z M 508.1066,381.34661 L 508.1066,405.99065 L 491.67538,405.99065 L 491.67538,381.34661 L 467.03133,381.34661 L 467.03133,364.91539 L 491.67538,364.91539 L 491.67538,337.52445 L 508.1066,337.52445 L 508.1066,364.91539 L 532.75621,364.91539 L 532.75621,381.34661 L 508.1066,381.34661 z M 590.1234,381.34661 L 590.1234,405.99065 L 573.69218,405.99065 L 573.69218,381.34661 L 549.04814,381.34661 L 549.04814,364.91539 L 573.69218,364.91539 L 573.69218,337.52445 L 590.1234,337.52445 L 590.1234,364.91539 L 614.77302,364.91539 L 614.77302,381.34661 L 590.1234,381.34661 z "
       style="font-size:182.57653809px;font-style:normal;font-weight:normal;fill:none;fill-opacity:1;stroke:url(#linearGradient3998);stroke-width:14.39999962;stroke-linecap:butt;stroke-linejoin:round;stroke-miterlimit:4;stroke-opacity:1;font-family:Bitstream Vera Sans" />
    <path
       id="path3996"
       d="M 450.23434,397.27276 L 450.23434,430.1352 L 392.72228,430.1352 C 390.04409,430.1352 387.9751,429.34401 386.5153,427.76162 C 385.17806,426.30181 384.50945,424.35355 384.50946,421.91681 L 384.50946,323.32949 C 384.50945,321.13803 385.23935,319.18976 386.69917,317.48468 C 388.15897,315.9024 390.16667,315.11121 392.72228,315.11109 L 450.23434,315.11109 L 450.23434,347.97353 L 433.80312,347.97353 L 433.80312,331.54231 L 400.94068,331.54231 L 400.94068,413.70398 L 433.80312,413.70398 L 433.80312,397.27276 L 450.23434,397.27276 z M 507.60153,380.84154 L 507.60153,405.48559 L 491.17031,405.48559 L 491.17031,380.84154 L 466.52627,380.84154 L 466.52627,364.41032 L 491.17031,364.41032 L 491.17031,337.01939 L 507.60153,337.01939 L 507.60153,364.41032 L 532.25114,364.41032 L 532.25114,380.84154 L 507.60153,380.84154 z M 589.61834,380.84154 L 589.61834,405.48559 L 573.18712,405.48559 L 573.18712,380.84154 L 548.54307,380.84154 L 548.54307,364.41032 L 573.18712,364.41032 L 573.18712,337.01939 L 589.61834,337.01939 L 589.61834,364.41032 L 614.26795,364.41032 L 614.26795,380.84154 L 589.61834,380.84154 z "
       style="font-size:182.57653809px;font-style:normal;font-weight:normal;fill:url(#linearGradient4000);fill-opacity:1;stroke:none;stroke-width:1px;stroke-linecap:round;stroke-linejoin:miter;stroke-opacity:1;font-family:Bitstream Vera Sans" />
    <path
       style="fill:#000000;fill-opacity:1;stroke:none"
       d="M 339.26229,157.95794 L 201.5583,165.49747 C 196.39428,165.77759 192.39732,170.07464 192.51087,175.24499 L 194.88043,282.89861 C 195.00137,288.11002 199.25361,292.27976 204.4664,292.26917 L 328.16842,291.94604 C 333.07569,291.93394 337.20382,288.21151 337.70053,283.32944 L 349.27908,168.51327 C 349.55867,165.72982 348.62567,162.94344 346.6941,160.9199 C 344.76256,158.89636 342.05572,157.80805 339.26229,157.95794 z M 224.33843,309.17924 C 218.90418,309.17927 213.60211,310.41955 208.7747,312.51817 L 204.08942,311.76422 C 200.99577,311.27128 197.80516,312.15795 195.41897,314.18764 C 193.03278,316.21733 191.65889,319.1869 191.64921,322.31955 L 191.64921,326.03546 C 188.11527,330.45498 185.11345,335.49235 182.65563,341.11451 C 176.67956,354.76006 173.66204,369.4839 173.66206,384.78989 L 173.66206,385.65155 C 173.67547,386.1628 173.73747,386.65533 173.82362,387.15945 C 174.11564,401.57838 177.03704,415.51318 182.70949,428.46527 C 184.99644,433.69546 187.83816,438.26379 191.05682,442.46724 L 190.62599,536.87284 C 190.59943,541.61226 193.68584,545.83057 198.21936,547.21276 L 287.77811,574.51661 C 290.78706,575.43469 294.01586,575.03009 296.66398,573.33182 C 299.3121,571.63358 301.09,568.85605 301.51082,565.73845 L 323.86012,399.22269 C 327.50013,397.3533 330.99122,395.01788 333.98462,392.114 C 343.15554,383.21738 347.1787,370.67871 347.17879,357.6476 C 347.17868,345.34357 342.98819,333.45962 334.25389,324.90453 C 334.22418,324.87446 334.17627,324.82655 334.14618,324.79682 C 330.236,321.01855 326.20537,317.68699 321.22129,315.42627 C 315.25469,312.65772 308.97777,311.81821 302.53404,311.81807 L 262.79,311.81807 L 257.51233,311.81807 C 253.57916,311.82252 249.95895,314.01308 248.08793,317.47271 C 241.26682,312.37574 233.13141,309.17932 224.33843,309.17924 z "
       id="path4227" />
    <path
       sodipodi:type="inkscape:offset"
       inkscape:radius="10.012604"
       inkscape:original="M 264.28125 50.625 L 120.375 58.46875 L 122.875 170.96875 L 252.15625 170.625 L 264.28125 50.625 z "
       style="opacity:1;fill:#000000;fill-opacity:1;stroke:none"
       id="path4229"
       d="M 263.75,40.625 L 119.84375,48.46875 C 114.44698,48.761525 110.25634,53.284102 110.375,58.6875 L 112.875,171.1875 C 113.0014,176.63378 117.45852,180.97982 122.90625,180.96875 L 252.1875,180.625 C 257.31594,180.61236 261.6059,176.72711 262.125,171.625 L 274.25,51.625 C 274.54218,48.716118 273.54855,45.824814 271.52993,43.71007 C 269.51131,41.595325 266.66932,40.468357 263.75,40.625 z "
       transform="matrix(0.9568722,0,0,0.9568722,86.881179,109.44908)" />
    <path
       d="M 263.9375,44.4375 L 120.03125,52.28125 C 116.70324,52.472621 114.12203,55.260889 114.1875,58.59375 L 116.6875,171.09375 C 116.7629,174.47119 119.52799,177.1668 122.90625,177.15625 L 252.1875,176.8125 C 255.34854,176.79058 257.98712,174.39433 258.3125,171.25 L 270.4375,51.25 C 270.61859,49.448941 270.00366,47.658669 268.75409,46.349021 C 267.50452,45.039373 265.74507,44.341116 263.9375,44.4375 L 263.9375,44.4375 z "
       id="path4231"
       style="opacity:1;fill:#ffffff;fill-opacity:1;stroke:none"
       inkscape:original="M 264.28125 50.625 L 120.375 58.46875 L 122.875 170.96875 L 252.15625 170.625 L 264.28125 50.625 z "
       inkscape:radius="6.2003112"
       sodipodi:type="inkscape:offset"
       transform="matrix(0.9568722,0,0,0.9568722,86.881179,109.44908)" />
    <path
       sodipodi:nodetypes="csscccccccccsccsssscccccs"
       id="path4233"
       d="M 224.31194,299.53771 C 218.87769,299.5377 213.52439,300.55676 208.79267,302.85686 C 200.53366,306.87161 198.01427,309.09628 191.65869,316.40258 C 187.94667,320.66989 185.1159,325.85117 182.6581,331.47332 C 176.68202,345.11888 173.68741,359.85454 173.68743,375.16053 L 173.68743,375.99779 C 173.70083,376.50904 173.75079,377.01868 173.83694,377.5228 C 174.12894,391.94172 177.01555,405.86572 182.688,418.81782 C 184.97495,424.048 187.84196,428.63853 191.06063,432.84198 L 190.6121,527.2434 C 190.58552,531.98285 193.67376,536.1775 198.20727,537.55967 L 287.76453,564.89033 C 290.77347,565.80843 294.03378,565.3588 296.6819,563.66055 C 299.33003,561.96229 301.09874,559.18678 301.51957,556.06918 L 323.88645,389.57341 C 327.52646,387.704 330.97009,385.39045 333.96351,382.48658 C 343.13443,373.58995 347.18022,361.04037 347.18032,348.00928 C 347.1802,335.70526 342.99684,323.79149 334.26254,315.2364 C 334.23281,315.20633 334.20291,315.17643 334.17283,315.1467 C 330.26265,311.36842 326.20923,308.048 321.22516,305.7873 C 315.25855,303.01873 308.97996,302.19916 302.53624,302.19902 L 262.79615,302.19902 L 257.53335,302.19902 C 253.60019,302.20346 249.98516,304.36101 248.11414,307.82064 C 241.29303,302.72365 233.10492,299.53773 224.31194,299.53771 z "
       style="fill:#000000;fill-opacity:1;stroke:none" />
    <path
       sodipodi:nodetypes="csscccccccccsccssccscccccccs"
       id="path4235"
       d="M 224.31194,303.57452 C 219.02378,303.57452 213.93824,304.75241 209.36082,307.01328 C 202.16432,310.56775 201.35024,311.50334 195.66558,318.07712 C 191.98367,322.33491 188.88316,327.33005 186.36598,333.08806 C 180.61653,346.2161 177.72422,360.37536 177.72424,375.16053 L 177.72424,375.99779 C 177.73333,376.36927 177.77333,376.73933 177.84383,377.10417 C 178.08534,391.15916 180.86657,404.64611 186.36598,417.2031 C 188.75482,422.66633 191.74558,427.38163 195.12733,431.55618 L 194.6489,527.2733 C 194.63986,530.23117 196.57256,532.84458 199.40337,533.70228 L 288.96062,561.03294 C 290.83761,561.60341 292.87035,561.32208 294.52186,560.26327 C 296.17337,559.20446 297.27748,557.4747 297.54256,555.53093 L 320.23837,386.70279 C 324.22053,384.89511 327.98275,382.69109 331.15271,379.61596 C 339.40762,371.60794 343.14343,360.24752 343.14351,348.00928 C 343.14341,336.57756 339.32345,325.8571 331.45172,318.13692 L 331.45172,318.10702 C 331.43192,318.08696 331.41198,318.06702 331.39192,318.04722 C 327.65287,314.43431 323.91139,311.44325 319.55063,309.46528 C 314.29683,307.02747 308.61537,306.23595 302.53624,306.23583 L 262.79615,306.23583 L 257.53335,306.23583 C 253.83365,306.23476 250.83417,309.23423 250.83524,312.93394 L 250.83524,313.44227 L 248.08424,313.02364 C 241.44186,307.19875 233.28077,303.57456 224.31194,303.57452 z "
       style="fill:#ffffff;fill-opacity:1;stroke:none" />
    <path
       sodipodi:nodetypes="ccccc"
       id="path4237"
       d="M 202.0559,165.39936 L 339.77716,157.88108 L 328.15799,272.70573 L 204.4481,273.04746 L 202.0559,165.39936 z "
       style="opacity:1;fill:#000000;fill-opacity:1;stroke:#000000;stroke-width:5.74123335;stroke-miterlimit:4;stroke-dasharray:none;stroke-opacity:1" />
    <path
       style="opacity:1;fill:url(#linearGradient4257);fill-opacity:1;stroke:none"
       d="M 202.0559,165.39936 L 339.77716,157.88108 L 328.15799,272.70573 L 204.4481,273.04746 L 202.0559,165.39936 z "
       id="path4239"
       sodipodi:nodetypes="ccccc" />
    <text
       id="text4241"
       y="432.11829"
       x="185.40463"
       style="font-size:165.59004211px;font-style:normal;font-weight:normal;opacity:1;fill:#000000;fill-opacity:1;stroke:#000000;stroke-width:17.22369766;stroke-linecap:butt;stroke-linejoin:miter;stroke-miterlimit:4;stroke-dasharray:none;stroke-opacity:1;font-family:Pharmacy"
       xml:space="preserve"><tspan
         y="432.11829"
         x="185.40463"
         id="tspan4243"
         sodipodi:role="line"
         style="stroke-width:17.22369766">OP</tspan></text>
    <path
       sodipodi:nodetypes="ccccccccccccccccc"
       id="path4245"
       d="M 199.52492,321.92465 L 198.5017,527.29973 L 198.5017,529.40003 L 200.54814,530.04627 L 290.05305,557.40397 L 293.28428,558.37334 L 293.76896,555.03441 L 323.81934,331.5414 L 324.19632,328.741 L 321.44978,328.31017 L 213.30013,311.46398 L 199.52492,321.92465 z M 205.28727,316.08537 L 317.73387,333.53398 L 288.49129,550.94152 L 204.26405,525.19944 L 205.28727,316.08537 z "
       style="fill:#000000;fill-opacity:1;stroke:none;stroke-width:3.33149648;stroke-miterlimit:4;stroke-opacity:1" />
    <path
       sodipodi:nodetypes="csscccccccccssccccccccccccccccsccccssccsccccsccssc"
       id="path4247"
       d="M 224.32476,310.27262 C 219.2971,310.27267 214.6947,311.66482 210.39031,313.95059 C 207.01846,315.74116 204.50622,317.92984 202.37649,320.34968 C 198.67961,324.55015 195.20476,329.61219 192.50875,335.77925 C 187.13626,348.04658 184.43513,361.24157 184.43515,375.16051 L 184.43515,375.99777 L 184.49495,376.14728 C 184.62072,389.6978 187.26517,402.53901 192.50875,414.51188 C 195.07925,420.39053 198.2199,425.38856 201.83825,429.3733 L 201.35982,527.30318 L 290.91709,554.63384 L 314.09133,382.18754 C 318.84607,380.60475 323.03084,378.16781 326.50076,374.80168 C 333.23217,368.27161 336.45814,358.92882 336.45821,348.00927 C 336.45814,338.00667 333.23732,329.2261 326.76987,322.89137 L 326.73998,322.86147 C 323.2856,319.5236 320.13647,317.07306 316.81243,315.56531 C 312.74421,313.67762 308.02176,312.93402 302.54905,312.93392 L 262.80895,312.93392 L 257.54616,312.93392 L 257.54616,318.19672 L 257.54616,321.27665 L 245.31614,319.3629 C 239.40819,313.52707 232.32121,310.27269 224.32476,310.27262 z M 275.57722,323.45951 L 285.23565,323.45951 C 284.7373,324.05762 284.30514,324.70428 283.91995,325.37326 L 276.02576,324.14725 C 275.87635,323.92015 275.74647,323.68149 275.57722,323.45951 z M 315.85556,327.3767 C 316.9377,328.20972 318.10618,329.16311 319.41392,330.42674 C 319.6039,330.61282 319.77053,330.80421 319.95216,330.99488 L 317.61979,330.63605 C 317.10298,329.49697 316.5191,328.40316 315.85556,327.3767 z M 320.84924,331.98165 C 324.23418,336.00281 325.93257,341.0591 325.93262,348.00927 C 325.93257,356.95984 323.59435,362.94897 319.17471,367.23641 C 318.16031,368.22046 317.00181,369.05951 315.76586,369.808 L 315.97517,368.19329 C 319.31012,362.88784 320.72961,356.09346 320.72962,348.15876 C 320.72961,344.7053 320.49151,341.52771 319.98206,338.59005 L 320.84924,331.98165 z M 202.28679,339.69644 L 202.22698,347.17199 C 201.03718,354.99707 200.49265,364.28123 200.49266,375.16051 C 200.49265,385.21806 200.97952,393.88771 201.98776,401.32498 L 201.92797,409.81723 C 197.28479,399.03783 194.96074,387.55151 194.96074,375.16051 C 194.96074,362.58628 197.35579,350.91332 202.13728,339.99545 C 202.1844,339.88769 202.2394,339.80168 202.28679,339.69644 z "
       style="opacity:1;fill:url(#linearGradient4259);fill-opacity:1;stroke:none" />
    <text
       id="text4249"
       y="432.11829"
       x="185.40463"
       style="font-size:165.59004211px;font-style:normal;font-weight:normal;opacity:1;fill:#000000;fill-opacity:1;stroke:#000000;stroke-width:1.91374433;stroke-linecap:butt;stroke-linejoin:miter;stroke-miterlimit:4;stroke-dasharray:none;stroke-opacity:1;font-family:Pharmacy"
       xml:space="preserve"><tspan
         y="432.11829"
         x="185.40463"
         id="tspan4251"
         sodipodi:role="line"
         style="stroke-width:1.91374433">OP</tspan></text>
    <text
       id="text4253"
       y="432.11829"
       x="185.40463"
       style="font-size:165.59004211px;font-style:normal;font-weight:normal;opacity:1;fill:url(#linearGradient4261);fill-opacity:1;stroke:none;stroke-width:11;stroke-linecap:butt;stroke-linejoin:miter;stroke-miterlimit:4;stroke-dasharray:none;stroke-opacity:1;font-family:Pharmacy"
       xml:space="preserve"><tspan
         style="fill:url(#linearGradient4261);fill-opacity:1"
         y="432.11829"
         x="185.40463"
         id="tspan4255"
         sodipodi:role="line">OP</tspan></text>
  </g>
</svg>
