<?xml version="1.0" encoding="UTF-8" standalone="no"?>
<!-- Created with Inkscape (http://www.inkscape.org/) -->
<svg
   xmlns:dc="http://purl.org/dc/elements/1.1/"
   xmlns:cc="http://web.resource.org/cc/"
   xmlns:rdf="http://www.w3.org/1999/02/22-rdf-syntax-ns#"
   xmlns:svg="http://www.w3.org/2000/svg"
   xmlns="http://www.w3.org/2000/svg"
   xmlns:sodipodi="http://sodipodi.sourceforge.net/DTD/sodipodi-0.dtd"
   xmlns:inkscape="http://www.inkscape.org/namespaces/inkscape"
   width="771.75653"
   height="71.720833"
   id="svg2"
   sodipodi:version="0.32"
   inkscape:version="0.45.1"
   sodipodi:docbase="C:\Spheroid\opCPP\Documentation\opC++"
   sodipodi:docname="heading.svg"
   inkscape:output_extension="org.inkscape.output.svg.inkscape"
   version="1.0">
  <defs
     id="defs4">
    <linearGradient
       id="linearGradient3279">
      <stop
         id="stop3281"
         offset="0"
         style="stop-color:#7ba2f0;stop-opacity:1;" />
      <stop
         id="stop3283"
         offset="1"
         style="stop-color:#ffffff;stop-opacity:1;" />
    </linearGradient>
    <linearGradient
       id="linearGradient3954">
      <stop
         style="stop-color:#80b57d;stop-opacity:1;"
         offset="0"
         id="stop3956" />
      <stop
         style="stop-color:#e1c360;stop-opacity:1;"
         offset="1"
         id="stop3958" />
    </linearGradient>
  </defs>
  <sodipodi:namedview
     id="base"
     pagecolor="#ffffff"
     bordercolor="#666666"
     borderopacity="1.0"
     gridtolerance="10000"
     guidetolerance="10"
     objecttolerance="10"
     inkscape:pageopacity="0.0"
     inkscape:pageshadow="2"
     inkscape:zoom="0.98994949"
     inkscape:cx="440.30369"
     inkscape:cy="168.02511"
     inkscape:document-units="px"
     inkscape:current-layer="layer1"
     inkscape:window-width="1400"
     inkscape:window-height="994"
     inkscape:window-x="1280"
     inkscape:window-y="0"
     width="765px"
     height="990px" />
  <metadata
     id="metadata7">
    <rdf:RDF>
      <cc:Work
         rdf:about="">
        <dc:format>image/svg+xml</dc:format>
        <dc:type
           rdf:resource="http://purl.org/dc/dcmitype/StillImage" />
      </cc:Work>
    </rdf:RDF>
  </metadata>
  <g
     inkscape:label="Layer 1"
     inkscape:groupmode="layer"
     id="layer1"
     transform="translate(2.0203052,0.9596449)">
    <rect
       style="opacity:1;fill:#ffffff;fill-opacity:1;fill-rule:nonzero;stroke:none;stroke-width:1;stroke-linecap:butt;stroke-linejoin:miter;stroke-miterlimit:4;stroke-dasharray:none;stroke-opacity:1"
       id="rect2176"
       width="771.75653"
       height="71.720833"
       x="-2.0203052"
       y="-0.95964491" />
    <path
       style="opacity:0.66310162;fill:#ffffff;fill-opacity:1;fill-rule:nonzero;stroke:none;stroke-width:22.02199936;stroke-linecap:butt;stroke-linejoin:miter;stroke-miterlimit:4;stroke-opacity:1"
       d="M 177.14285,103.79075 L 191.42857,686.64789 L 297.14285,686.64789 L 372.85714,88.07647 L 177.14285,103.79075 z "
       id="path3782"
       sodipodi:nodetypes="ccccc" />
    <rect
       style="opacity:1;fill:#004e8c;fill-opacity:1;fill-rule:nonzero;stroke:none;stroke-width:5;stroke-linecap:butt;stroke-linejoin:miter;stroke-miterlimit:4;stroke-dasharray:none;stroke-opacity:1"
       id="rect2300"
       width="749.67377"
       height="6.0714278"
       x="7.5"
       y="11.214285" />
    <path
       d="M 48.886824,4.997767 L 48.350885,5.026478 L 26.310383,6.227556 L 25.865362,6.251482 L 25.874933,6.696503 L 26.257746,23.923122 L 26.267317,24.372928 L 26.721908,24.372928 L 46.518164,24.320291 L 46.929689,24.315506 L 46.972755,23.903981 L 48.834187,5.528921 L 48.886824,4.997767 z M 47.862797,5.973942 L 46.101854,23.401538 L 27.166929,23.454175 L 26.803256,7.122383 L 47.862797,5.973942 z "
       style="opacity:1;fill:#ffffff;fill-opacity:1;stroke:#ffffff;stroke-width:1;stroke-miterlimit:4;stroke-dasharray:none;stroke-opacity:1"
       id="path2267" />
    <path
       d="M 26.335643,6.687438 L 48.374779,5.484309 L 46.515397,23.859369 L 26.718458,23.914058 L 26.335643,6.687438 z "
       style="opacity:1;fill:#004e8c;fill-opacity:1;stroke:none;stroke-opacity:1"
       id="path2269" />
    <path
       d="M 29.899262,29.335151 C 27.465979,29.335176 25.476597,31.080309 24.314967,33.737509 C 23.425128,35.769328 22.979902,37.959035 22.979904,40.254913 L 22.979904,40.470246 L 22.994259,40.508527 C 23.026218,42.710856 23.458349,44.811585 24.314967,46.767532 C 25.476636,49.424243 27.466104,51.16989 29.899262,51.16989 C 31.846862,51.16989 33.498102,50.040346 34.679649,48.231795 L 34.679649,48.52369 L 34.679649,49.370666 L 34.679649,50.748795 L 36.057778,50.748795 L 42.10145,50.748795 L 43.47958,50.748795 L 43.47958,49.370666 L 43.47958,48.52369 L 43.47958,47.226909 L 42.187584,47.145561 C 41.818648,47.122577 41.520531,47.055269 41.331038,47.011576 C 41.320841,46.948366 41.30711,46.908979 41.307112,46.71968 L 41.307112,42.269471 L 41.914829,42.269471 C 43.769813,42.26948 45.434274,41.7339 46.623438,40.580305 C 47.818354,39.421128 48.379584,37.757658 48.379596,35.909977 C 48.379584,34.201189 47.809107,32.626778 46.666504,31.507619 L 46.666504,31.502834 L 46.661719,31.498049 C 46.083073,30.938925 45.543006,30.512603 44.919917,30.229978 C 44.169553,29.881801 43.344678,29.761051 42.417272,29.761031 L 36.057778,29.761031 L 34.679649,29.761031 L 34.679649,31.139161 L 34.679649,31.986136 L 34.679649,32.273247 C 33.498224,30.464553 31.846966,29.335168 29.899262,29.335151 z M 29.899262,33.101081 C 30.071126,33.101083 30.105591,33.10931 30.25815,33.254207 C 30.410709,33.399103 30.63993,33.736139 30.841941,34.31173 C 31.245963,35.462912 31.511861,37.491398 31.511865,40.254913 C 31.511861,43.018438 31.245963,45.046916 30.841941,46.198097 C 30.63993,46.773688 30.410706,47.110726 30.25815,47.25562 C 30.105594,47.400513 30.071124,47.408745 29.899262,47.408745 C 29.734786,47.408745 29.7048,47.404219 29.55473,47.260405 C 29.404659,47.116591 29.176217,46.779286 28.975724,46.202882 C 28.574737,45.050074 28.305798,43.019158 28.3058,40.254913 C 28.305798,37.490678 28.574737,35.459753 28.975724,34.306945 C 29.176217,33.73054 29.404656,33.39324 29.55473,33.249422 C 29.704804,33.105603 29.734784,33.101083 29.899262,33.101081 z M 35.26344,33.306844 L 35.952505,33.359481 C 36.122292,33.37285 36.183974,33.404754 36.273111,33.431258 C 36.294512,33.527612 36.320961,33.605151 36.320963,33.790146 L 36.320963,36.288006 C 36.106561,35.416676 35.839348,34.560844 35.478773,33.737509 C 35.413034,33.587135 35.334395,33.451227 35.26344,33.306844 z M 41.728207,33.364266 C 42.317769,33.364272 42.453547,33.456887 42.666101,33.761435 C 42.878654,34.065983 43.106332,34.777951 43.106337,35.933903 C 43.106332,37.110359 42.849073,37.79234 42.565612,38.130297 C 42.315509,38.428484 41.979007,38.60699 41.307112,38.647096 L 41.307112,34.110753 L 41.307112,33.680087 C 41.30711,33.358868 41.355074,33.380486 41.321467,33.412118 C 41.287861,33.443749 41.343801,33.36427 41.728207,33.364266 z M 36.320963,44.217036 L 36.320963,46.71968 C 36.320961,46.904684 36.294526,46.982203 36.273111,47.078568 C 36.183995,47.10505 36.1221,47.132211 35.952505,47.145561 L 35.26344,47.198198 C 35.3344,47.053837 35.413031,46.917878 35.478773,46.767532 C 35.839584,45.943666 36.106578,45.088817 36.320963,44.217036 z "
       style="font-size:173.0534668px;font-style:normal;font-weight:normal;opacity:1;fill:#ffffff;fill-opacity:1;stroke:none;stroke-width:18;stroke-linecap:butt;stroke-linejoin:miter;stroke-miterlimit:4;stroke-opacity:1;font-family:Pharmacy"
       id="path2271" />
    <path
       d="M 25.932355,29.72275 L 25.932355,30.253904 L 25.764874,64.601868 L 25.764874,64.941615 L 26.090265,65.042104 L 40.421855,69.415751 L 40.938654,69.573661 L 41.010431,69.037722 L 45.824314,33.273348 L 45.881736,32.828327 L 45.436715,32.756549 L 26.458724,29.804098 L 25.932355,29.72275 z M 26.846323,30.794628 L 44.848139,33.593954 L 40.173026,68.377368 L 26.683627,64.262121 L 26.846323,30.794628 z "
       style="opacity:1;fill:#ffffff;fill-opacity:1;stroke:#ffffff;stroke-width:1;stroke-miterlimit:4;stroke-dasharray:none;stroke-opacity:1"
       id="path2273" />
    <path
       d="M 26.390332,30.257829 L 45.36696,33.210963 L 40.554445,68.9767 L 26.226268,64.601687 L 26.390332,30.257829 z "
       style="opacity:1;fill:#004e8c;fill-opacity:1;stroke:none;stroke-opacity:1"
       id="path2275" />
    <path
       d="M 29.899262,29.87109 C 27.697948,29.871112 25.923202,31.401476 24.807839,33.952842 C 23.948095,35.915949 23.515841,38.027505 23.515843,40.254913 L 23.515843,40.388898 L 23.525413,40.412824 C 23.545539,42.581274 23.968722,44.636215 24.807839,46.552199 C 25.923227,49.103064 27.698025,50.633951 29.899262,50.633951 C 32.100921,50.633951 33.875265,49.103114 34.990685,46.552199 C 35.850419,44.589109 36.277883,42.482338 36.277896,40.254913 C 36.277884,38.027507 35.850419,35.915949 34.990685,33.952842 C 33.87529,31.401428 32.100999,29.87111 29.899262,29.87109 z M 35.215588,30.296971 L 35.215588,31.139161 L 35.215588,31.986136 L 35.215588,32.766119 L 35.990786,32.823541 C 36.573744,32.869444 36.832826,33.053902 36.765984,32.981452 C 36.693294,32.902652 36.856899,33.187492 36.856902,33.790146 L 36.856902,46.71968 C 36.856899,47.322353 36.693249,47.607216 36.765984,47.528375 C 36.83282,47.455925 36.573732,47.635613 35.990786,47.6815 L 35.215588,47.743707 L 35.215588,48.52369 L 35.215588,49.370666 L 35.215588,50.212856 L 36.057778,50.212856 L 42.10145,50.212856 L 42.943641,50.212856 L 42.943641,49.370666 L 42.943641,48.52369 L 42.943641,47.729352 L 42.154087,47.6815 C 41.353315,47.631612 40.82497,47.440266 40.909943,47.494878 C 40.912575,47.49659 40.77117,47.348798 40.771173,46.71968 L 40.771173,41.733531 L 41.914829,41.733531 C 43.673628,41.733539 45.176494,41.239077 46.250194,40.197491 C 47.327402,39.152503 47.843644,37.657403 47.843657,35.909977 C 47.843644,34.309291 47.328226,32.904162 46.293261,31.890433 L 46.288476,31.885648 C 45.735681,31.3515 45.231735,30.959346 44.699799,30.718066 C 44.048773,30.415984 43.293053,30.296989 42.417272,30.296971 L 36.057778,30.296971 L 35.215588,30.296971 z M 38.101047,31.981351 L 39.646657,31.981351 C 39.321924,32.371089 39.150618,32.86344 39.105933,33.388192 L 39.086792,33.421688 L 39.086792,33.680087 L 39.086792,40.044366 L 39.086792,40.049151 L 39.086792,40.886556 L 39.086792,40.891341 L 39.086792,46.71968 C 39.086789,47.40226 39.208901,48.053463 39.58445,48.528475 L 38.096262,48.528475 C 38.486729,48.019442 38.54128,47.431576 38.541283,46.71968 L 38.541283,33.790146 C 38.541278,33.080276 38.488395,32.489423 38.101047,31.981351 z M 29.899262,32.565142 C 30.198381,32.565145 30.387811,32.639803 30.626608,32.866608 C 30.865406,33.093413 31.128673,33.506415 31.349169,34.134678 C 31.790163,35.391205 32.0478,37.460048 32.047804,40.254913 C 32.0478,43.049787 31.790162,45.118623 31.349169,46.375148 C 31.128673,47.003411 30.865404,47.416417 30.626608,47.643219 C 30.387812,47.87002 30.198379,47.944684 29.899262,47.944684 C 29.606387,47.944684 29.417468,47.869362 29.181486,47.643219 C 28.945505,47.417075 28.6872,47.003907 28.468496,46.375148 C 28.031087,45.117628 27.769859,43.050227 27.769861,40.254913 C 27.769859,37.459609 28.031087,35.387413 28.468496,34.129893 C 28.6872,33.501132 28.945503,33.087969 29.181486,32.861823 C 29.41747,32.635676 29.606385,32.565145 29.899262,32.565142 z M 44.546673,32.608209 C 44.719844,32.741515 44.906834,32.894082 45.116109,33.096296 C 45.812781,33.778674 46.159267,34.649039 46.159276,35.909977 C 46.159267,37.342315 45.78509,38.300735 45.077827,38.986843 C 44.847498,39.210283 44.574907,39.38715 44.278704,39.541923 C 45.022468,38.646628 45.326652,37.413426 45.326656,35.933903 C 45.32665,34.576713 45.10305,33.468877 44.546673,32.608209 z M 41.728207,32.828327 C 42.445752,32.828333 42.797815,33.013131 43.106337,33.455184 C 43.414858,33.897237 43.642271,34.715611 43.642276,35.933903 C 43.642271,37.185278 43.373649,38.002087 42.977137,38.474829 C 42.580625,38.947572 42.020115,39.20218 41.039142,39.202175 L 40.771173,39.202175 L 40.771173,33.943272 L 40.771173,33.680087 C 40.771171,33.263964 40.856767,33.115101 40.953009,33.024519 C 41.049252,32.933936 41.259732,32.828333 41.728207,32.828327 z M 26.841537,33.704013 C 26.317387,35.28125 26.085479,37.430809 26.08548,40.254913 C 26.085479,43.073422 26.314824,45.219825 26.836752,46.796243 C 26.671545,46.506349 26.505785,46.236821 26.348665,45.87749 C 25.583498,44.13036 25.200222,42.267152 25.200223,40.254913 C 25.200222,38.242694 25.583497,36.374705 26.348665,34.627551 C 26.506767,34.265896 26.675231,33.995383 26.841537,33.704013 z M 32.995268,33.785361 C 33.14622,34.056565 33.300875,34.297702 33.445075,34.627551 C 34.210233,36.374707 34.593504,38.242688 34.593516,40.254913 C 34.593504,42.267158 34.210232,44.130356 33.445075,45.87749 C 33.300879,46.207258 33.146224,46.448526 32.995268,46.71968 C 33.505544,45.148752 33.73218,43.031789 33.732185,40.254913 C 33.73218,37.478047 33.505544,35.356289 32.995268,33.785361 z "
       style="font-size:173.0534668px;font-style:normal;font-weight:normal;opacity:1;fill:#004e8c;fill-opacity:1;stroke:none;stroke-width:11;stroke-linecap:butt;stroke-linejoin:miter;stroke-miterlimit:4;stroke-opacity:1;font-family:Pharmacy"
       id="path2277" />
    <path
       d="M 29.899262,30.560155 C 27.996194,30.560173 26.49536,31.815087 25.439482,34.230382 C 24.618428,36.105145 24.204906,38.115537 24.204908,40.254913 L 24.204908,40.278839 L 24.204908,40.283624 C 24.208612,42.412147 24.62215,44.413203 25.439482,46.279445 C 26.495365,48.694222 27.996208,49.944886 29.899262,49.944886 C 31.802823,49.944886 33.303146,48.694232 34.359042,46.279445 C 35.180086,44.4047 35.588819,42.394309 35.588832,40.254913 C 35.588819,38.115536 35.180088,36.105145 34.359042,34.230382 C 33.30315,31.815078 31.802837,30.560172 29.899262,30.560155 z M 29.899262,30.866406 C 31.670321,30.866421 33.04727,31.999986 34.076717,34.354796 C 34.880566,36.190296 35.282568,38.154659 35.282581,40.254913 C 35.282568,42.355186 34.880565,44.31955 34.076717,46.15503 C 33.047276,48.509316 31.670336,49.638635 29.899262,49.638635 C 28.128733,49.638635 26.746457,48.509323 25.717022,46.15503 C 24.913164,44.319553 24.511157,42.355183 24.511159,40.254913 L 24.511159,40.230987 C 24.51424,38.139855 24.916257,36.183231 25.717022,34.354796 C 26.746462,31.999979 28.128749,30.866424 29.899262,30.866406 z M 35.904653,30.986035 L 35.904653,31.139161 L 35.904653,31.986136 L 35.904653,32.129691 L 36.048208,32.139262 C 36.703369,32.19085 37.107227,32.337783 37.268427,32.512505 C 37.428561,32.686099 37.545964,33.116861 37.545967,33.790146 L 37.545967,46.71968 C 37.545964,47.392984 37.428553,47.818964 37.268427,47.992536 C 37.107227,48.167272 36.703366,48.318994 36.048208,48.370565 L 35.904653,48.380135 L 35.904653,48.52369 L 35.904653,49.370666 L 35.904653,49.523791 L 36.057778,49.523791 L 42.10145,49.523791 L 42.254576,49.523791 L 42.254576,49.370666 L 42.254576,48.52369 L 42.254576,48.37535 L 42.111021,48.370565 C 41.271573,48.318268 40.728497,48.19408 40.541484,48.073884 C 40.253039,47.886289 40.082105,47.455574 40.082108,46.71968 L 40.082108,41.044467 L 41.914829,41.044467 C 43.549963,41.044474 44.84643,40.597404 45.771677,39.699833 C 46.697543,38.80166 47.154581,37.528503 47.154592,35.909977 C 47.154581,34.448278 46.706531,33.256697 45.809959,32.37852 C 45.290398,31.876488 44.832214,31.533044 44.417474,31.344923 C 43.89417,31.102104 43.226679,30.986052 42.417272,30.986035 L 36.057778,30.986035 L 35.904653,30.986035 z M 36.210904,31.292286 L 42.417272,31.292286 C 43.19718,31.292303 43.821734,31.405985 44.288274,31.622463 C 44.650927,31.786958 45.094621,32.110877 45.599411,32.598638 C 46.434476,33.416569 46.84833,34.510052 46.848341,35.909977 C 46.84833,37.471214 46.414948,38.646792 45.556345,39.479715 C 44.697078,40.313282 43.495,40.738223 41.914829,40.738216 L 39.928982,40.738216 L 39.775857,40.738216 L 39.775857,40.891341 L 39.775857,46.71968 C 39.775854,47.503031 39.956191,48.060551 40.374003,48.332283 C 40.661204,48.516872 41.187207,48.602934 41.948325,48.657675 L 41.948325,49.21754 L 36.210904,49.21754 L 36.210904,48.648105 C 36.812295,48.586201 37.251704,48.464999 37.49333,48.203084 C 37.756951,47.917327 37.852215,47.424375 37.852218,46.71968 L 37.852218,33.790146 C 37.852213,33.085469 37.756943,32.592513 37.49333,32.306743 C 37.251704,32.044846 36.812294,31.918854 36.210904,31.856937 L 36.210904,31.292286 z M 29.899262,31.569826 C 29.367932,31.569831 28.887951,31.765006 28.492422,32.144047 C 28.096892,32.523088 27.778342,33.078509 27.525817,33.804502 C 27.020766,35.256487 26.774543,37.401908 26.774545,40.254913 C 26.774543,43.107928 27.020766,45.25334 27.525817,46.705325 C 27.778342,47.431317 28.096892,47.98674 28.492422,48.36578 C 28.887951,48.744819 29.367932,48.94 29.899262,48.94 C 30.43471,48.94 30.916715,48.744699 31.315673,48.36578 C 31.714631,47.98686 32.032236,47.431408 32.287063,46.705325 C 32.796718,45.253159 33.043116,43.108007 33.04312,40.254913 C 33.043116,37.401828 32.796718,35.256667 32.287063,33.804502 C 32.032236,33.078419 31.714631,32.522968 31.315673,32.144047 C 30.916715,31.765126 30.43471,31.569831 29.899262,31.569826 z M 41.728207,31.833011 C 41.103602,31.833018 40.610905,31.979619 40.273515,32.297172 C 39.949342,32.602284 39.797584,33.057721 39.785427,33.61788 L 39.775857,33.632235 L 39.775857,33.680087 L 39.775857,40.044366 L 39.775857,40.197491 L 39.928982,40.197491 L 41.039142,40.197491 C 42.217895,40.197497 43.1363,39.839103 43.742764,39.116042 C 44.349229,38.392982 44.637587,37.324413 44.637592,35.933903 C 44.637585,34.599834 44.406567,33.583168 43.919816,32.885749 C 43.433065,32.188329 42.683432,31.83302 41.728207,31.833011 z M 29.899262,31.876077 C 30.361994,31.876082 30.750663,32.032048 31.10034,32.364165 C 31.450018,32.696282 31.755688,33.209006 31.999953,33.90499 C 32.488481,35.296959 32.736865,37.419743 32.736869,40.254913 C 32.736865,43.090093 32.488481,45.212867 31.999953,46.604836 C 31.755688,47.300821 31.450018,47.808763 31.10034,48.140877 C 30.750663,48.47299 30.361994,48.633749 29.899262,48.633749 C 29.441302,48.633749 29.049406,48.472871 28.702969,48.140877 C 28.356532,47.808882 28.059831,47.300911 27.817712,46.604836 C 27.333474,45.212687 27.080794,43.090174 27.080796,40.254913 C 27.080794,37.419661 27.333474,35.29714 27.817712,33.90499 C 28.059831,33.208915 28.35653,32.696161 28.702969,32.364165 C 29.049408,32.032169 29.441302,31.876082 29.899262,31.876077 z M 41.728207,32.139262 C 42.6103,32.139269 43.239075,32.443955 43.670987,33.0628 C 44.102899,33.681644 44.331334,34.635457 44.331341,35.933903 C 44.331336,37.281602 44.050155,38.269026 43.508291,38.915065 C 42.966427,39.561105 42.15704,39.891245 41.039142,39.89124 L 40.082108,39.89124 L 40.082108,33.727939 L 40.082108,33.680087 C 40.082106,33.141943 40.220872,32.769791 40.484062,32.522076 C 40.747253,32.27436 41.151642,32.139269 41.728207,32.139262 z "
       style="font-size:173.0534668px;font-style:normal;font-weight:normal;opacity:1;fill:#ffffff;fill-opacity:1;stroke:none;stroke-width:2;stroke-linecap:butt;stroke-linejoin:miter;stroke-miterlimit:4;stroke-opacity:1;font-family:Pharmacy"
       id="path2279" />
    <path
       d="M 26.929969,40.254243 C 26.929966,45.942517 27.919253,48.786648 29.897834,48.786648 C 31.894192,48.786648 32.892374,45.942517 32.892383,40.254243 C 32.892374,34.565986 31.894192,31.721854 29.897834,31.721836 C 27.919253,31.721854 26.929966,34.565986 26.929969,40.254243 L 26.929969,40.254243 z M 24.359978,40.254243 C 24.359976,38.134427 24.766204,36.146959 25.578661,34.291828 C 26.62132,31.906771 28.061043,30.714236 29.897834,30.714218 C 31.735151,30.714236 33.175143,31.906771 34.217813,34.291828 C 35.030259,36.146959 35.436485,38.134427 35.436498,40.254243 C 35.436485,42.374075 35.030259,44.361543 34.217813,46.216656 C 33.175143,48.60119 31.735151,49.793457 29.897834,49.793457 C 28.061043,49.793457 26.62132,48.60119 25.578661,46.216656 C 24.766204,44.361543 24.359976,42.374075 24.359978,40.254243 L 24.359978,40.254243 z M 36.058374,49.369707 L 36.058374,48.5214 C 36.72958,48.468567 37.17112,48.327318 37.382995,48.097651 C 37.594869,47.867987 37.700806,47.408655 37.700809,46.719656 L 37.700809,33.788019 C 37.700806,33.099039 37.594869,32.639707 37.382995,32.410024 C 37.17112,32.180376 36.72958,32.039127 36.058374,31.986276 L 36.058374,31.138777 L 42.417852,31.138777 C 43.212509,31.138795 43.857298,31.253627 44.352219,31.483275 C 44.740916,31.659585 45.191352,31.995188 45.703527,32.490085 C 46.569345,33.338138 47.00226,34.477571 47.00227,35.908383 C 47.00226,37.498265 46.556136,38.725978 45.663901,39.591526 C 44.771647,40.457096 43.521694,40.889874 41.914042,40.889867 L 39.92711,40.889867 L 39.92711,46.719656 C 39.927105,47.479279 40.103668,47.973924 40.456797,48.203588 C 40.704249,48.36263 41.251996,48.468567 42.100039,48.5214 L 42.100039,49.369707 L 36.058374,49.369707 z M 39.92711,33.682081 L 39.92711,40.042367 L 41.039857,40.042367 C 43.336507,40.042377 44.484834,38.673278 44.484843,35.93507 C 44.484834,33.302556 43.566172,31.986292 41.728855,31.986276 C 40.527686,31.986292 39.927105,32.551561 39.92711,33.682081 L 39.92711,33.682081 z "
       style="font-size:173.0534668px;font-style:normal;font-weight:normal;opacity:1;fill:#ffffff;fill-opacity:1;stroke:none;stroke-width:11;stroke-linecap:butt;stroke-linejoin:miter;stroke-miterlimit:4;stroke-opacity:1;font-family:Pharmacy"
       id="path2281" />
    <path
       d="M 55.576494,29.794528 C 54.835969,29.79456 53.966011,30.099769 53.408812,30.70371 C 53.395764,30.719429 53.383001,30.735381 53.37053,30.751562 C 52.914083,31.284694 52.628832,32.035708 52.628829,32.746979 L 52.628829,47.844196 C 52.628829,48.526837 52.858598,49.308586 53.380101,49.877894 C 53.380099,49.879489 53.380099,49.881084 53.380101,49.882679 C 53.953309,50.504024 54.833154,50.791862 55.576494,50.791862 L 64.381211,50.791862 C 65.315285,50.792826 66.073483,50.036769 66.075162,49.102696 L 66.075162,44.068695 C 66.075626,43.61929 65.897305,43.188158 65.579526,42.87038 C 65.261748,42.552601 64.830616,42.37428 64.381211,42.374744 L 61.868995,42.374744 C 61.419591,42.37428 60.988458,42.552601 60.67068,42.87038 C 60.352901,43.188158 60.174581,43.61929 60.175045,44.068695 L 60.175045,44.891745 L 58.528946,44.891745 L 58.528946,35.694644 L 60.175045,35.694644 L 60.175045,36.517694 C 60.174581,36.967099 60.352901,37.398232 60.67068,37.71601 C 60.988458,38.033788 61.419591,38.212109 61.868995,38.211645 L 64.381211,38.211645 C 64.830616,38.212109 65.261748,38.033788 65.579526,37.71601 C 65.897305,37.398232 66.075626,36.967099 66.075162,36.517694 L 66.075162,31.488478 C 66.075626,31.039073 65.897305,30.607941 65.579526,30.290163 C 65.261748,29.972384 64.830616,29.794064 64.381211,29.794528 L 55.576494,29.794528 z M 70.649786,33.148933 C 69.715713,33.150611 68.959656,33.908809 68.96062,34.842884 L 68.96062,37.345529 L 66.87907,37.345529 C 65.944996,37.344564 65.186798,38.100621 65.18512,39.034694 L 65.18512,41.551695 C 65.184656,42.0011 65.362976,42.432232 65.680755,42.750011 C 65.998533,43.067789 66.429665,43.24611 66.87907,43.245646 L 68.96062,43.245646 L 68.96062,45.327195 C 68.962294,46.259402 69.717579,47.014687 70.649786,47.016361 L 73.166786,47.016361 C 74.100861,47.017326 74.859059,46.261269 74.860737,45.327195 L 74.860737,43.245646 L 76.942287,43.245646 C 77.418123,43.244444 77.871466,43.042958 78.191217,42.690566 C 78.509845,43.041732 78.961193,43.243102 79.435361,43.245646 L 81.516911,43.245646 L 81.516911,45.327195 C 81.518589,46.261269 82.27679,47.017326 83.21086,47.016361 L 85.72786,47.016361 C 86.66007,47.014687 87.41535,46.259402 87.41703,45.327195 L 87.41703,43.245646 L 89.49858,43.245646 C 89.94798,43.24611 90.37912,43.067789 90.69689,42.750011 C 91.01467,42.432232 91.19299,42.0011 91.19253,41.551695 L 91.19253,39.034694 C 91.19085,38.100621 90.43265,37.344564 89.49858,37.345529 L 87.41703,37.345529 L 87.41703,34.842884 C 87.41799,33.908809 86.66194,33.150611 85.72786,33.148933 L 83.21086,33.148933 C 82.76146,33.148469 82.33033,33.32679 82.01255,33.644568 C 81.694768,33.962346 81.516447,34.393479 81.516911,34.842884 L 81.516911,37.345529 L 79.435361,37.345529 C 78.959525,37.346731 78.506182,37.548216 78.186432,37.900609 C 77.867803,37.549443 77.416455,37.348072 76.942287,37.345529 L 74.860737,37.345529 L 74.860737,34.842884 C 74.861201,34.393479 74.68288,33.962346 74.365102,33.644568 C 74.047324,33.32679 73.616191,33.148469 73.166786,33.148933 L 70.649786,33.148933 z M 71.908286,40.163995 C 71.948995,40.209357 71.992124,40.252486 72.037486,40.293195 C 71.992124,40.333903 71.948995,40.377032 71.908286,40.422394 C 71.869127,40.377158 71.827598,40.334032 71.783872,40.293195 C 71.827598,40.252358 71.869127,40.209231 71.908286,40.163995 z M 84.46936,40.16878 C 84.5102,40.212507 84.55333,40.254036 84.59856,40.293195 C 84.5532,40.333903 84.51007,40.377032 84.46936,40.422394 C 84.42865,40.377032 84.38553,40.333903 84.34016,40.293195 C 84.3854,40.254036 84.42852,40.212507 84.46936,40.16878 z "
       style="font-size:182.57653809px;font-style:normal;font-weight:normal;opacity:1;fill:#004e8c;fill-opacity:1;stroke:none;stroke-width:22.10000038;stroke-linecap:butt;stroke-linejoin:round;stroke-miterlimit:4;stroke-opacity:1;font-family:Bitstream Vera Sans"
       id="path2283" />
    <path
       d="M 55.576494,30.383104 C 54.957635,30.38313 54.285207,30.622946 53.844262,31.100879 C 53.83447,31.111852 53.824896,31.12302 53.815551,31.134376 C 53.440254,31.572725 53.217406,32.166608 53.217405,32.746979 L 53.217405,47.844196 C 53.217405,48.418998 53.399619,49.031889 53.810766,49.480725 C 53.812355,49.482325 53.813951,49.48392 53.815551,49.48551 C 54.266927,49.97479 54.949262,50.203286 55.576494,50.203286 L 64.381211,50.203286 C 64.990456,50.204812 65.485469,49.711941 65.486585,49.102696 L 65.486585,44.068695 C 65.485469,43.45945 64.990456,42.966579 64.381211,42.968106 L 61.868995,42.968106 C 61.25975,42.966579 60.764737,43.45945 60.763621,44.068695 L 60.763621,45.480321 L 57.935584,45.480321 L 57.935584,35.106068 L 60.763621,35.106068 L 60.763621,36.517694 C 60.762886,36.811083 60.879108,37.092667 61.086566,37.300124 C 61.294023,37.507581 61.575607,37.623804 61.868995,37.623069 L 64.381211,37.623069 C 64.674599,37.623804 64.956183,37.507581 65.163641,37.300124 C 65.371098,37.092667 65.48732,36.811083 65.486585,36.517694 L 65.486585,31.488478 C 65.48732,31.19509 65.371098,30.913506 65.163641,30.706048 C 64.956183,30.498591 64.674599,30.382369 64.381211,30.383104 L 55.576494,30.383104 z M 55.490361,32.569927 C 55.496482,32.563294 55.412696,32.589076 55.576494,32.589068 L 63.280621,32.589068 L 63.280621,35.417105 L 62.969585,35.417105 L 62.969585,34.005479 C 62.971112,33.396234 62.478241,32.90122 61.868995,32.900104 L 56.834995,32.900104 C 56.22575,32.90122 55.732878,33.396234 55.734405,34.005479 L 55.734405,46.585696 C 55.73552,47.193073 56.227618,47.68517 56.834995,47.686285 L 61.868995,47.686285 C 62.476372,47.68517 62.96847,47.193073 62.969585,46.585696 L 62.969585,45.169285 L 63.280621,45.169285 L 63.280621,47.997321 L 55.576494,47.997321 C 55.383532,47.997321 55.433414,47.983079 55.437724,47.987751 C 55.43934,47.989515 55.423369,48.015647 55.423369,47.844196 L 55.423369,32.746979 C 55.423369,32.656213 55.418587,32.65376 55.490361,32.569927 z M 70.649786,33.737509 C 70.040541,33.738625 69.54767,34.233639 69.549196,34.842884 L 69.549196,37.934105 L 66.87907,37.934105 C 66.269825,37.932578 65.774812,38.425449 65.773696,39.034694 L 65.773696,41.551695 C 65.772961,41.845083 65.889183,42.126667 66.09664,42.334125 C 66.304098,42.541582 66.585682,42.657805 66.87907,42.65707 L 69.549196,42.65707 L 69.549196,45.327195 C 69.550311,45.934572 70.042409,46.42667 70.649786,46.427785 L 73.166786,46.427785 C 73.776031,46.429312 74.271045,45.93644 74.272161,45.327195 L 74.272161,42.65707 L 76.942287,42.65707 C 77.551532,42.655953 78.044403,42.16094 78.042876,41.551695 L 78.042876,39.034694 C 78.041762,38.427318 77.549664,37.93522 76.942287,37.934105 L 74.272161,37.934105 L 74.272161,34.842884 C 74.272896,34.549495 74.156674,34.267911 73.949216,34.060454 C 73.741759,33.852996 73.460175,33.736774 73.166786,33.737509 L 70.649786,33.737509 z M 83.21086,33.737509 C 82.91747,33.736774 82.63589,33.852996 82.42843,34.060454 C 82.22098,34.267911 82.10475,34.549495 82.10549,34.842884 L 82.10549,37.934105 L 79.435361,37.934105 C 78.827985,37.93522 78.335887,38.427318 78.334772,39.034694 L 78.334772,41.551695 C 78.333245,42.16094 78.826116,42.655953 79.435361,42.65707 L 82.10549,42.65707 L 82.10549,45.327195 C 82.1066,45.93644 82.60162,46.429312 83.21086,46.427785 L 85.72786,46.427785 C 86.33524,46.42667 86.82734,45.934572 86.82845,45.327195 L 86.82845,42.65707 L 89.49858,42.65707 C 89.79197,42.657805 90.07355,42.541582 90.28101,42.334125 C 90.48847,42.126667 90.60469,41.845083 90.60395,41.551695 L 90.60395,39.034694 C 90.60284,38.425449 90.10782,37.932578 89.49858,37.934105 L 86.82845,37.934105 L 86.82845,34.842884 C 86.82998,34.233639 86.33711,33.738625 85.72786,33.737509 L 83.21086,33.737509 z M 71.755161,35.943473 L 72.066197,35.943473 L 72.066197,39.034694 C 72.06467,39.643939 72.557541,40.138953 73.166786,40.140069 L 75.841697,40.140069 L 75.841697,40.451105 L 73.166786,40.451105 C 72.559409,40.45222 72.067312,40.944318 72.066197,41.551695 L 72.066197,44.221821 L 71.755161,44.221821 L 71.755161,41.551695 C 71.754044,40.94245 71.259031,40.449579 70.649786,40.451105 L 67.97966,40.451105 L 67.97966,40.140069 L 70.649786,40.140069 C 70.943174,40.140804 71.224758,40.024582 71.432216,39.817124 C 71.639673,39.609667 71.755896,39.328083 71.755161,39.034694 L 71.755161,35.943473 z M 84.31145,35.943473 L 84.62249,35.943473 L 84.62249,39.034694 C 84.62175,39.328083 84.73798,39.609667 84.94543,39.817124 C 85.15289,40.024582 85.43447,40.140804 85.72786,40.140069 L 88.39799,40.140069 L 88.39799,40.451105 L 85.72786,40.451105 C 85.11862,40.449579 84.6236,40.94245 84.62249,41.551695 L 84.62249,44.221821 L 84.31145,44.221821 L 84.31145,41.551695 C 84.31034,40.944318 83.81824,40.45222 83.21086,40.451105 L 80.540736,40.451105 L 80.540736,40.140069 L 83.21086,40.140069 C 83.82011,40.138953 84.31298,39.643939 84.31145,39.034694 L 84.31145,35.943473 z "
       style="font-size:182.57653809px;font-style:normal;font-weight:normal;opacity:1;fill:#ffffff;fill-opacity:1;stroke:none;stroke-width:14.39999962;stroke-linecap:butt;stroke-linejoin:round;stroke-miterlimit:4;stroke-opacity:1;font-family:Bitstream Vera Sans"
       id="path2285" />
    <path
       d="M 64.305734,43.991022 L 64.305734,49.0231 L 55.499171,49.0231 C 55.089072,49.0231 54.772256,48.901949 54.548724,48.659644 C 54.343958,48.43611 54.241577,48.137782 54.241579,47.764655 L 54.241579,32.668422 C 54.241577,32.332854 54.353343,32.034524 54.576879,31.773433 C 54.800412,31.531145 55.107842,31.409994 55.499171,31.409976 L 64.305734,31.409976 L 64.305734,36.442053 L 61.789695,36.442053 L 61.789695,33.926014 L 56.757617,33.926014 L 56.757617,46.507061 L 61.789695,46.507061 L 61.789695,43.991022 L 64.305734,43.991022 z M 73.090113,41.474984 L 73.090113,45.248616 L 70.574075,45.248616 L 70.574075,41.474984 L 66.800444,41.474984 L 66.800444,38.958945 L 70.574075,38.958945 L 70.574075,34.764695 L 73.090113,34.764695 L 73.090113,38.958945 L 76.864597,38.958945 L 76.864597,41.474984 L 73.090113,41.474984 z M 85.64898,41.474984 L 85.64898,45.248616 L 83.13294,45.248616 L 83.13294,41.474984 L 79.359307,41.474984 L 79.359307,38.958945 L 83.13294,38.958945 L 83.13294,34.764695 L 85.64898,34.764695 L 85.64898,38.958945 L 89.42346,38.958945 L 89.42346,41.474984 L 85.64898,41.474984 z "
       style="font-size:182.57653809px;font-style:normal;font-weight:normal;opacity:1;fill:#004e8c;fill-opacity:1;stroke:none;stroke-width:1px;stroke-linecap:round;stroke-linejoin:miter;stroke-opacity:1;font-family:Bitstream Vera Sans"
       id="path2287" />
  </g>
</svg>
