<?xml version="1.0" encoding="UTF-8" standalone="no"?>
<!-- Created with Inkscape (http://www.inkscape.org/) -->
<svg
   xmlns:dc="http://purl.org/dc/elements/1.1/"
   xmlns:cc="http://web.resource.org/cc/"
   xmlns:rdf="http://www.w3.org/1999/02/22-rdf-syntax-ns#"
   xmlns:svg="http://www.w3.org/2000/svg"
   xmlns="http://www.w3.org/2000/svg"
   xmlns:sodipodi="http://sodipodi.sourceforge.net/DTD/sodipodi-0.dtd"
   xmlns:inkscape="http://www.inkscape.org/namespaces/inkscape"
   width="80"
   height="80"
   id="svg2"
   sodipodi:version="0.32"
   inkscape:version="0.45.1"
   sodipodi:docbase="C:\Spheroid\opCPP\Documentation\opC++"
   sodipodi:docname="plus.svg"
   inkscape:output_extension="org.inkscape.output.svg.inkscape"
   version="1.0">
  <defs
     id="defs4">
    <linearGradient
       id="linearGradient3279">
      <stop
         id="stop3281"
         offset="0"
         style="stop-color:#7ba2f0;stop-opacity:1;" />
      <stop
         id="stop3283"
         offset="1"
         style="stop-color:#ffffff;stop-opacity:1;" />
    </linearGradient>
    <linearGradient
       id="linearGradient3954">
      <stop
         style="stop-color:#80b57d;stop-opacity:1;"
         offset="0"
         id="stop3956" />
      <stop
         style="stop-color:#e1c360;stop-opacity:1;"
         offset="1"
         id="stop3958" />
    </linearGradient>
  </defs>
  <sodipodi:namedview
     id="base"
     pagecolor="#ffffff"
     bordercolor="#666666"
     borderopacity="1.0"
     gridtolerance="10000"
     guidetolerance="10"
     objecttolerance="10"
     inkscape:pageopacity="0.0"
     inkscape:pageshadow="2"
     inkscape:zoom="3.959798"
     inkscape:cx="96.657566"
     inkscape:cy="5.4726134"
     inkscape:document-units="px"
     inkscape:current-layer="layer1"
     inkscape:window-width="1280"
     inkscape:window-height="968"
     inkscape:window-x="1280"
     inkscape:window-y="22"
     width="80px"
     height="80px" />
  <metadata
     id="metadata7">
    <rdf:RDF>
      <cc:Work
         rdf:about="">
        <dc:format>image/svg+xml</dc:format>
        <dc:type
           rdf:resource="http://purl.org/dc/dcmitype/StillImage" />
      </cc:Work>
    </rdf:RDF>
  </metadata>
  <g
     inkscape:label="Layer 1"
     inkscape:groupmode="layer"
     id="layer1"
     transform="translate(-9.1977961,-8.766484)">
    <path
       style="opacity:0.66310162;fill:#ffffff;fill-opacity:1;fill-rule:nonzero;stroke:none;stroke-width:22.02199936;stroke-linecap:butt;stroke-linejoin:miter;stroke-miterlimit:4;stroke-opacity:1"
       d="M 177.14285,103.79075 L 191.42857,686.64789 L 297.14285,686.64789 L 372.85714,88.07647 L 177.14285,103.79075 z "
       id="path3782"
       sodipodi:nodetypes="ccccc" />
    <path
       sodipodi:type="inkscape:offset"
       inkscape:radius="1.736564"
       inkscape:original="M 83.21875 33.75 C 82.925359 33.749263 82.64496 33.855042 82.4375 34.0625 C 82.230051 34.269956 82.09301 34.550361 82.09375 34.84375 L 82.09375 37.9375 L 79.4375 37.9375 C 78.830121 37.938615 78.344865 38.423874 78.34375 39.03125 L 78.34375 41.5625 C 78.342225 42.171743 78.828255 42.655133 79.4375 42.65625 L 82.09375 42.65625 L 82.09375 45.3125 C 82.094858 45.921746 82.60951 46.439027 83.21875 46.4375 L 85.71875 46.4375 C 86.326131 46.436386 86.84264 45.919877 86.84375 45.3125 L 86.84375 42.65625 L 89.5 42.65625 C 89.793389 42.656985 90.07379 42.551207 90.28125 42.34375 C 90.488707 42.136291 90.59449 41.855888 90.59375 41.5625 L 90.59375 39.03125 C 90.592639 38.422004 90.10924 37.935973 89.5 37.9375 L 86.84375 37.9375 L 86.84375 34.84375 C 86.845277 34.234505 86.328 33.751116 85.71875 33.75 L 83.21875 33.75 z M 84.3125 35.9375 L 84.625 35.9375 L 84.625 39.03125 C 84.62426 39.324638 84.73005 39.605043 84.9375 39.8125 C 85.144963 40.019959 85.42536 40.125735 85.71875 40.125 L 88.40625 40.125 L 88.40625 40.4375 L 85.71875 40.4375 C 85.109511 40.435976 84.62611 40.953255 84.625 41.5625 L 84.625 44.21875 L 84.3125 44.21875 L 84.3125 41.5625 C 84.311393 40.955121 83.82613 40.438615 83.21875 40.4375 L 80.53125 40.4375 L 80.53125 40.125 L 83.21875 40.125 C 83.827999 40.123885 84.31403 39.640495 84.3125 39.03125 L 84.3125 35.9375 z "
       style="font-size:182.57653809px;font-style:normal;font-weight:normal;fill:#004e8c;fill-opacity:1;stroke:none;stroke-width:14.39999962;stroke-linecap:butt;stroke-linejoin:round;stroke-miterlimit:4;stroke-opacity:1;font-family:Bitstream Vera Sans"
       id="path3178"
       d="M 83.21875,32 C 82.505184,31.998208 81.770729,32.291776 81.21875,32.84375 C 80.728457,33.33406 80.341639,34.006813 80.34375,34.84375 L 80.34375,36.1875 L 79.4375,36.1875 C 77.906884,36.19031 76.59656,37.500638 76.59375,39.03125 L 76.59375,41.5625 C 76.589907,43.097608 77.911398,44.403452 79.4375,44.40625 L 80.34375,44.40625 L 80.34375,45.3125 C 80.346633,46.897912 81.624104,48.191497 83.21875,48.1875 L 85.71875,48.1875 C 87.308822,48.184584 88.590844,46.902581 88.59375,45.3125 L 88.59375,44.40625 L 89.5,44.40625 C 90.213556,44.408038 90.948015,44.114477 91.5,43.5625 C 92.051975,43.01052 92.34555,42.276095 92.34375,41.5625 L 92.34375,39.03125 C 92.340967,37.505122 91.035115,36.183652 89.5,36.1875 L 88.59375,36.1875 L 88.59375,34.84375 C 88.597746,33.249264 87.244741,32.002795 85.71875,32 L 83.21875,32 z "
       transform="matrix(4.3099664,0,0,4.3099664,-316.12044,-123.59657)" />
    <path
       sodipodi:type="inkscape:offset"
       inkscape:radius="0.48067534"
       inkscape:original="M 83.21875 33.75 C 82.925359 33.749263 82.64496 33.855042 82.4375 34.0625 C 82.230051 34.269956 82.09301 34.550361 82.09375 34.84375 L 82.09375 37.9375 L 79.4375 37.9375 C 78.830121 37.938615 78.344865 38.423874 78.34375 39.03125 L 78.34375 41.5625 C 78.342225 42.171743 78.828255 42.655133 79.4375 42.65625 L 82.09375 42.65625 L 82.09375 45.3125 C 82.094858 45.921746 82.60951 46.439027 83.21875 46.4375 L 85.71875 46.4375 C 86.326131 46.436386 86.84264 45.919877 86.84375 45.3125 L 86.84375 42.65625 L 89.5 42.65625 C 89.793389 42.656985 90.07379 42.551207 90.28125 42.34375 C 90.488707 42.136291 90.59449 41.855888 90.59375 41.5625 L 90.59375 39.03125 C 90.592639 38.422004 90.10924 37.935973 89.5 37.9375 L 86.84375 37.9375 L 86.84375 34.84375 C 86.845277 34.234505 86.328 33.751116 85.71875 33.75 L 83.21875 33.75 z M 84.3125 35.9375 L 84.625 35.9375 L 84.625 39.03125 C 84.62426 39.324638 84.73005 39.605043 84.9375 39.8125 C 85.144963 40.019959 85.42536 40.125735 85.71875 40.125 L 88.40625 40.125 L 88.40625 40.4375 L 85.71875 40.4375 C 85.109511 40.435976 84.62611 40.953255 84.625 41.5625 L 84.625 44.21875 L 84.3125 44.21875 L 84.3125 41.5625 C 84.311393 40.955121 83.82613 40.438615 83.21875 40.4375 L 80.53125 40.4375 L 80.53125 40.125 L 83.21875 40.125 C 83.827999 40.123885 84.31403 39.640495 84.3125 39.03125 L 84.3125 35.9375 z "
       style="font-size:182.57653809px;font-style:normal;font-weight:normal;fill:#ffffff;fill-opacity:1;stroke:none;stroke-width:14.39999962;stroke-linecap:butt;stroke-linejoin:round;stroke-miterlimit:4;stroke-opacity:1;font-family:Bitstream Vera Sans"
       id="path3176"
       d="M 83.21875,33.28125 C 82.809056,33.280221 82.396572,33.415931 82.09375,33.71875 C 81.808011,34.004499 81.623881,34.399909 81.625,34.84375 L 81.625,37.46875 L 79.4375,37.46875 C 78.574572,37.470334 77.876584,38.168325 77.875,39.03125 L 77.875,41.5625 C 77.872834,42.42802 78.574472,43.123418 79.4375,43.125 L 81.625,43.125 L 81.625,45.3125 C 81.626599,46.191946 82.336753,46.908461 83.21875,46.90625 L 85.71875,46.90625 C 86.598137,46.904637 87.310893,46.191886 87.3125,45.3125 L 87.3125,43.125 L 89.5,43.125 C 89.90969,43.126026 90.322177,42.990319 90.625,42.6875 C 90.927818,42.384679 91.063533,41.9722 91.0625,41.5625 L 91.0625,39.03125 C 91.060926,38.168214 90.365519,37.466581 89.5,37.46875 L 87.3125,37.46875 L 87.3125,34.84375 C 87.314711,33.961793 86.581751,33.282831 85.71875,33.28125 L 83.21875,33.28125 z M 84.46875,39.96875 C 84.513065,40.028783 84.539836,40.102334 84.59375,40.15625 C 84.653945,40.216444 84.744689,40.233023 84.8125,40.28125 C 84.676847,40.381011 84.567276,40.488028 84.46875,40.625 C 84.370145,40.488276 84.26062,40.380937 84.125,40.28125 C 84.257973,40.185677 84.370908,40.099914 84.46875,39.96875 z "
       transform="matrix(4.3099664,0,0,4.3099664,-316.12044,-123.59657)" />
    <path
       style="font-size:182.57653809px;font-style:normal;font-weight:normal;fill:#004e8c;fill-opacity:1;stroke:none;stroke-width:1px;stroke-linecap:round;stroke-linejoin:miter;stroke-opacity:1;font-family:Bitstream Vera Sans"
       d="M 53.023791,55.159218 L 53.023791,71.423446 L 42.179743,71.423446 L 42.179743,55.159218 L 25.915512,55.159218 L 25.915512,44.315175 L 42.179743,44.315175 L 42.179743,26.238099 L 53.023791,26.238099 L 53.023791,44.315175 L 69.291673,44.315175 L 69.291673,55.159218 L 53.023791,55.159218 z "
       id="path2287"
       sodipodi:nodetypes="ccccccccccccc" />
  </g>
</svg>
