<?xml version="1.0" encoding="UTF-8" standalone="no"?>
<!-- Created with Inkscape (http://www.inkscape.org/) -->
<svg
   xmlns:svg="http://www.w3.org/2000/svg"
   xmlns="http://www.w3.org/2000/svg"
   version="1.0"
   width="744.09448"
   height="1052.3622"
   id="svg2">
  <defs
     id="defs4" />
  <g
     style="opacity:1"
     id="layer1">
    <path
       d="M 324.78125,177.4375 L 321.28125,177.625 L 177.34375,185.46875 L 174.4375,185.625 L 174.5,188.53125 L 177,301.03125 L 177.0625,303.96875 L 180.03125,303.96875 L 309.3125,303.625 L 312,303.59375 L 312.28125,300.90625 L 324.4375,180.90625 L 324.78125,177.4375 z M 318.09375,183.8125 L 306.59375,297.625 L 182.9375,297.96875 L 180.5625,191.3125 L 318.09375,183.8125 z "
       style="fill:black;fill-opacity:1;stroke:none;stroke-width:6;stroke-miterlimit:4;stroke-opacity:1"
       id="path12788" />
    <path
       d="M 177.50871,188.47205 L 321.43729,180.61491 L 309.29443,300.61491 L 180.00872,300.97206 L 177.50871,188.47205 z "
       style="fill:#004e8c;fill-opacity:1;stroke:none"
       id="rect3711" />
    <path
       d="M 200.78125,336.375 C 184.89047,336.37516 171.89863,347.77191 164.3125,365.125 C 158.50133,378.39398 155.59374,392.69406 155.59375,407.6875 L 155.59375,409.09375 L 155.6875,409.34375 C 155.89621,423.72626 158.71828,437.44526 164.3125,450.21875 C 171.89889,467.56864 184.89129,478.96875 200.78125,478.96875 C 213.50023,478.96875 224.2838,471.59216 232,459.78125 L 232,461.6875 L 232,467.21875 L 232,476.21875 L 241,476.21875 L 280.46875,476.21875 L 289.46875,476.21875 L 289.46875,467.21875 L 289.46875,461.6875 L 289.46875,453.21875 L 281.03125,452.6875 C 278.62188,452.5374 276.675,452.09784 275.4375,451.8125 C 275.37091,451.3997 275.28124,451.14248 275.28125,449.90625 L 275.28125,420.84375 L 279.25,420.84375 C 291.36414,420.84381 302.23406,417.34616 310,409.8125 C 317.80351,402.24239 321.46867,391.37895 321.46875,379.3125 C 321.46867,368.1531 317.74312,357.87127 310.28125,350.5625 L 310.28125,350.53125 L 310.25,350.5 C 306.4711,346.84859 302.94414,344.06446 298.875,342.21875 C 293.97468,339.94495 288.58776,339.15638 282.53125,339.15625 L 241,339.15625 L 232,339.15625 L 232,348.15625 L 232,353.6875 L 232,355.5625 C 224.2846,343.75066 213.50091,336.37511 200.78125,336.375 z M 200.78125,360.96875 C 201.90362,360.96876 202.1287,361.02249 203.125,361.96875 C 204.1213,362.91501 205.61825,365.11605 206.9375,368.875 C 209.576,376.3929 211.31247,389.64011 211.3125,407.6875 C 211.31247,425.73495 209.576,438.98211 206.9375,446.5 C 205.61825,450.25895 204.12128,452.46001 203.125,453.40625 C 202.12872,454.35249 201.90361,454.40625 200.78125,454.40625 C 199.70712,454.40625 199.5113,454.37669 198.53125,453.4375 C 197.5512,452.49831 196.05934,450.29551 194.75,446.53125 C 192.13132,439.00273 190.37499,425.73965 190.375,407.6875 C 190.37499,389.63541 192.13132,376.37227 194.75,368.84375 C 196.05934,365.07949 197.55118,362.87672 198.53125,361.9375 C 199.51132,360.99828 199.70711,360.96876 200.78125,360.96875 z M 235.8125,362.3125 L 240.3125,362.65625 C 241.42131,362.74356 241.82413,362.95191 242.40625,363.125 C 242.54601,363.75425 242.71874,364.26062 242.71875,365.46875 L 242.71875,381.78125 C 241.31858,376.09095 239.57352,370.50186 237.21875,365.125 C 236.78944,364.14297 236.27588,363.25541 235.8125,362.3125 z M 278.03125,362.6875 C 281.88144,362.68754 282.76815,363.29237 284.15625,365.28125 C 285.54435,367.27013 287.03122,371.9197 287.03125,379.46875 C 287.03122,387.1517 285.35117,391.60544 283.5,393.8125 C 281.86668,395.75984 279.66912,396.92559 275.28125,397.1875 L 275.28125,367.5625 L 275.28125,364.75 C 275.28124,362.65225 275.59447,362.79343 275.375,363 C 275.15553,363.20657 275.52085,362.68753 278.03125,362.6875 z M 242.71875,433.5625 L 242.71875,449.90625 C 242.71874,451.11443 242.5461,451.62068 242.40625,452.25 C 241.82427,452.42294 241.42006,452.60032 240.3125,452.6875 L 235.8125,453.03125 C 236.27591,452.08849 236.78942,451.2006 237.21875,450.21875 C 239.57506,444.83842 241.31869,439.25575 242.71875,433.5625 z "
       style="font-size:173.0534668px;font-style:normal;font-weight:normal;fill:black;fill-opacity:1;stroke:none;stroke-width:18;stroke-linecap:butt;stroke-linejoin:miter;stroke-miterlimit:4;stroke-opacity:1;font-family:Pharmacy"
       id="text7276" />
    <path
       d="M 174.875,338.90625 L 174.875,342.375 L 173.78125,566.6875 L 173.78125,568.90625 L 175.90625,569.5625 L 269.5,598.125 L 272.875,599.15625 L 273.34375,595.65625 L 304.78125,362.09375 L 305.15625,359.1875 L 302.25,358.71875 L 178.3125,339.4375 L 174.875,338.90625 z M 180.84375,345.90625 L 298.40625,364.1875 L 267.875,591.34375 L 179.78125,564.46875 L 180.84375,345.90625 z "
       style="fill:black;fill-opacity:1;stroke:none;stroke-width:6;stroke-miterlimit:4;stroke-opacity:1"
       id="path12790" />
    <path
       d="M 177.86586,342.40063 L 301.79446,361.68634 L 270.36589,595.25774 L 176.79443,566.68632 L 177.86586,342.40063 z "
       style="fill:#004e8c;fill-opacity:1;stroke:none"
       id="rect3717" />
    <path
       d="M 200.78125,339.875 C 186.40537,339.87514 174.81523,349.86932 167.53125,366.53125 C 161.91661,379.3515 159.09374,393.14121 159.09375,407.6875 L 159.09375,408.5625 L 159.15625,408.71875 C 159.28768,422.88001 162.05132,436.29999 167.53125,448.8125 C 174.81539,465.47115 186.40587,475.46875 200.78125,475.46875 C 215.15938,475.46875 226.7469,465.47148 234.03125,448.8125 C 239.64582,435.99236 242.43741,422.2339 242.4375,407.6875 C 242.43742,393.14122 239.64582,379.3515 234.03125,366.53125 C 226.74706,349.86901 215.15989,339.87513 200.78125,339.875 z M 235.5,342.65625 L 235.5,348.15625 L 235.5,353.6875 L 235.5,358.78125 L 240.5625,359.15625 C 244.36956,359.45602 246.06152,360.66064 245.625,360.1875 C 245.15029,359.67289 246.21873,361.53306 246.21875,365.46875 L 246.21875,449.90625 C 246.21873,453.84206 245.15,455.70238 245.625,455.1875 C 246.06148,454.71436 244.36948,455.88783 240.5625,456.1875 L 235.5,456.59375 L 235.5,461.6875 L 235.5,467.21875 L 235.5,472.71875 L 241,472.71875 L 280.46875,472.71875 L 285.96875,472.71875 L 285.96875,467.21875 L 285.96875,461.6875 L 285.96875,456.5 L 280.8125,456.1875 C 275.58298,455.8617 272.13258,454.6121 272.6875,454.96875 C 272.70469,454.97993 271.78123,454.01476 271.78125,449.90625 L 271.78125,417.34375 L 279.25,417.34375 C 290.736,417.3438 300.5506,414.11467 307.5625,407.3125 C 314.5973,400.48811 317.96867,390.72422 317.96875,379.3125 C 317.96867,368.85907 314.60268,359.68275 307.84375,353.0625 L 307.8125,353.03125 C 304.20242,349.54295 300.91136,346.98195 297.4375,345.40625 C 293.18592,343.43348 288.25062,342.65637 282.53125,342.65625 L 241,342.65625 L 235.5,342.65625 z M 254.34375,353.65625 L 264.4375,353.65625 C 262.3168,356.20147 261.19807,359.41681 260.90625,362.84375 L 260.78125,363.0625 L 260.78125,364.75 L 260.78125,406.3125 L 260.78125,406.34375 L 260.78125,411.8125 L 260.78125,411.84375 L 260.78125,449.90625 C 260.78123,454.3639 261.57869,458.61664 264.03125,461.71875 L 254.3125,461.71875 C 256.86248,458.39446 257.21873,454.55535 257.21875,449.90625 L 257.21875,365.46875 C 257.21872,360.83288 256.87336,356.97426 254.34375,353.65625 z M 200.78125,357.46875 C 202.73467,357.46877 203.97176,357.95633 205.53125,359.4375 C 207.09074,360.91867 208.81003,363.61582 210.25,367.71875 C 213.12995,375.92461 214.81247,389.43538 214.8125,407.6875 C 214.81247,425.93968 213.12994,439.4504 210.25,447.65625 C 208.81003,451.75918 207.09073,454.45635 205.53125,455.9375 C 203.97177,457.41865 202.73466,457.90625 200.78125,457.90625 C 198.8686,457.90625 197.63485,457.41435 196.09375,455.9375 C 194.55265,454.46065 192.86577,451.76242 191.4375,447.65625 C 188.58096,439.4439 186.87499,425.94255 186.875,407.6875 C 186.87499,389.43251 188.58096,375.89985 191.4375,367.6875 C 192.86577,363.58132 194.55264,360.88312 196.09375,359.40625 C 197.63486,357.92938 198.86859,357.46877 200.78125,357.46875 z M 296.4375,357.75 C 297.56841,358.62057 298.78956,359.61692 300.15625,360.9375 C 304.70593,365.39383 306.96869,371.07783 306.96875,379.3125 C 306.96869,388.66651 304.52509,394.92556 299.90625,399.40625 C 298.40206,400.86545 296.62188,402.02049 294.6875,403.03125 C 299.54472,397.18445 301.53122,389.13091 301.53125,379.46875 C 301.53121,370.6055 300.07097,363.37067 296.4375,357.75 z M 278.03125,359.1875 C 282.71724,359.18754 285.01642,360.39438 287.03125,363.28125 C 289.04608,366.16812 290.53122,371.51258 290.53125,379.46875 C 290.53122,387.64097 288.77696,392.97521 286.1875,396.0625 C 283.59804,399.14979 279.93758,400.81253 273.53125,400.8125 L 271.78125,400.8125 L 271.78125,366.46875 L 271.78125,364.75 C 271.78124,362.03247 272.34023,361.06031 272.96875,360.46875 C 273.59727,359.87719 274.97183,359.18754 278.03125,359.1875 z M 180.8125,364.90625 C 177.38949,375.20654 175.87499,389.24443 175.875,407.6875 C 175.87499,426.09403 177.37275,440.11131 180.78125,450.40625 C 179.70235,448.51307 178.61984,446.75289 177.59375,444.40625 C 172.59676,432.99646 170.09374,420.82861 170.09375,407.6875 C 170.09374,394.54652 172.59675,382.34745 177.59375,370.9375 C 178.62625,368.57568 179.72642,366.80907 180.8125,364.90625 z M 221,365.4375 C 221.9858,367.20862 222.99579,368.78339 223.9375,370.9375 C 228.93444,382.34746 231.43742,394.54648 231.4375,407.6875 C 231.43742,420.82865 228.93443,432.99643 223.9375,444.40625 C 222.99582,446.55983 221.98583,448.13545 221,449.90625 C 224.3324,439.64716 225.81247,425.82214 225.8125,407.6875 C 225.81247,389.55292 224.3324,375.69659 221,365.4375 z "
       style="font-size:173.0534668px;font-style:normal;font-weight:normal;fill:#004e8c;fill-opacity:1;stroke:none;stroke-width:11;stroke-linecap:butt;stroke-linejoin:miter;stroke-miterlimit:4;stroke-opacity:1;font-family:Pharmacy"
       id="text3722" />
    <path
       d="M 200.78125,344.375 C 188.35309,344.37512 178.55176,352.57045 171.65625,368.34375 C 166.29428,380.58706 163.59374,393.71611 163.59375,407.6875 L 163.59375,407.84375 L 163.59375,407.875 C 163.61794,421.77551 166.31859,434.84359 171.65625,447.03125 C 178.55179,462.80117 188.35318,470.96875 200.78125,470.96875 C 213.21263,470.96875 223.01062,462.80124 229.90625,447.03125 C 235.26815,434.78806 237.93742,421.65902 237.9375,407.6875 C 237.93742,393.7161 235.26816,380.58706 229.90625,368.34375 C 223.01065,352.57039 213.21272,344.37511 200.78125,344.375 z M 200.78125,346.375 C 212.34731,346.3751 221.3396,353.77795 228.0625,369.15625 C 233.31211,381.14315 235.93742,393.9716 235.9375,407.6875 C 235.93742,421.40352 233.3121,434.23198 228.0625,446.21875 C 221.33964,461.59363 212.34741,468.96875 200.78125,468.96875 C 189.21865,468.96875 180.19157,461.59367 173.46875,446.21875 C 168.21908,434.232 165.59374,421.4035 165.59375,407.6875 L 165.59375,407.53125 C 165.61387,393.87492 168.23928,381.09701 173.46875,369.15625 C 180.1916,353.7779 189.21875,346.37512 200.78125,346.375 z M 240,347.15625 L 240,348.15625 L 240,353.6875 L 240,354.625 L 240.9375,354.6875 C 245.21609,355.0244 247.85352,355.98396 248.90625,357.125 C 249.95202,358.25867 250.71873,361.0718 250.71875,365.46875 L 250.71875,449.90625 C 250.71873,454.30332 249.95197,457.08522 248.90625,458.21875 C 247.85352,459.35988 245.21607,460.35071 240.9375,460.6875 L 240,460.75 L 240,461.6875 L 240,467.21875 L 240,468.21875 L 241,468.21875 L 280.46875,468.21875 L 281.46875,468.21875 L 281.46875,467.21875 L 281.46875,461.6875 L 281.46875,460.71875 L 280.53125,460.6875 C 275.04916,460.34597 271.50255,459.53495 270.28125,458.75 C 268.39753,457.52489 267.28123,454.71207 267.28125,449.90625 L 267.28125,412.84375 L 279.25,412.84375 C 289.92839,412.8438 298.39509,409.92417 304.4375,404.0625 C 310.48395,398.1969 313.46868,389.88243 313.46875,379.3125 C 313.46868,369.76674 310.54265,361.98501 304.6875,356.25 C 301.29446,352.97143 298.30225,350.72854 295.59375,349.5 C 292.17627,347.91425 287.81716,347.15636 282.53125,347.15625 L 241,347.15625 L 240,347.15625 z M 242,349.15625 L 282.53125,349.15625 C 287.62451,349.15636 291.70322,349.89877 294.75,351.3125 C 297.11834,352.38675 300.01592,354.50213 303.3125,357.6875 C 308.76597,363.02907 311.46868,370.17016 311.46875,379.3125 C 311.46868,389.5083 308.63844,397.18552 303.03125,402.625 C 297.41973,408.06868 289.56945,410.8438 279.25,410.84375 L 266.28125,410.84375 L 265.28125,410.84375 L 265.28125,411.84375 L 265.28125,449.90625 C 265.28123,455.02199 266.45894,458.66293 269.1875,460.4375 C 271.06309,461.64297 274.4982,462.20501 279.46875,462.5625 L 279.46875,466.21875 L 242,466.21875 L 242,462.5 C 245.92744,462.09573 248.79704,461.30421 250.375,459.59375 C 252.0966,457.72759 252.71873,454.50832 252.71875,449.90625 L 252.71875,365.46875 C 252.71872,360.86679 252.09655,357.6475 250.375,355.78125 C 248.79704,354.07091 245.92743,353.24811 242,352.84375 L 242,349.15625 z M 200.78125,350.96875 C 197.31135,350.96878 194.17679,352.24339 191.59375,354.71875 C 189.01071,357.19411 186.93039,360.82134 185.28125,365.5625 C 181.98297,375.04482 180.37499,389.05569 180.375,407.6875 C 180.37499,426.31937 181.98297,440.33018 185.28125,449.8125 C 186.93039,454.55366 189.01071,458.1809 191.59375,460.65625 C 194.17679,463.1316 197.31135,464.40625 200.78125,464.40625 C 204.27804,464.40625 207.42582,463.13082 210.03125,460.65625 C 212.63668,458.18168 214.71083,454.55425 216.375,449.8125 C 219.70335,440.329 221.31247,426.31989 221.3125,407.6875 C 221.31247,389.05517 219.70335,375.046 216.375,365.5625 C 214.71083,360.82075 212.63668,357.19333 210.03125,354.71875 C 207.42582,352.24417 204.27804,350.96878 200.78125,350.96875 z M 278.03125,352.6875 C 273.95221,352.68755 270.73461,353.64494 268.53125,355.71875 C 266.41421,357.71131 265.42314,360.68558 265.34375,364.34375 L 265.28125,364.4375 L 265.28125,364.75 L 265.28125,406.3125 L 265.28125,407.3125 L 266.28125,407.3125 L 273.53125,407.3125 C 281.2292,407.31254 287.22693,404.97201 291.1875,400.25 C 295.14807,395.52799 297.03122,388.5496 297.03125,379.46875 C 297.03121,370.75649 295.52252,364.11706 292.34375,359.5625 C 289.16498,355.00794 284.26943,352.68756 278.03125,352.6875 z M 200.78125,352.96875 C 203.80316,352.96878 206.3414,353.98733 208.625,356.15625 C 210.9086,358.32517 212.90481,361.67356 214.5,366.21875 C 217.69038,375.30913 219.31247,389.17216 219.3125,407.6875 C 219.31247,426.2029 217.69038,440.06587 214.5,449.15625 C 212.90481,453.70144 210.9086,457.0186 208.625,459.1875 C 206.3414,461.3564 203.80316,462.40625 200.78125,462.40625 C 197.7905,462.40625 195.23119,461.35562 192.96875,459.1875 C 190.70631,457.01938 188.76868,453.70203 187.1875,449.15625 C 184.02514,440.06469 182.37499,426.20343 182.375,407.6875 C 182.37499,389.17163 184.02514,375.31031 187.1875,366.21875 C 188.76868,361.67297 190.7063,358.32438 192.96875,356.15625 C 195.2312,353.98812 197.7905,352.96878 200.78125,352.96875 z M 278.03125,354.6875 C 283.79184,354.68755 287.89811,356.67733 290.71875,360.71875 C 293.53939,364.76017 295.03121,370.98913 295.03125,379.46875 C 295.03122,388.27002 293.19494,394.71848 289.65625,398.9375 C 286.11756,403.15652 280.83178,405.31253 273.53125,405.3125 L 267.28125,405.3125 L 267.28125,365.0625 L 267.28125,364.75 C 267.28124,361.2356 268.18746,358.80523 269.90625,357.1875 C 271.62504,355.56977 274.26594,354.68755 278.03125,354.6875 z "
       style="font-size:173.0534668px;font-style:normal;font-weight:normal;fill:black;fill-opacity:1;stroke:none;stroke-width:2;stroke-linecap:butt;stroke-linejoin:miter;stroke-miterlimit:4;stroke-opacity:1;font-family:Pharmacy"
       id="text5502" />
    <path
       d="M 181.39001,407.68312 C 181.38999,444.83091 187.85062,463.40477 200.77192,463.40477 C 213.80932,463.40477 220.32804,444.83091 220.3281,407.68312 C 220.32804,370.53544 213.80932,351.96158 200.77192,351.96146 C 187.85062,351.96158 181.38999,370.53544 181.39001,407.68312 L 181.39001,407.68312 z M 164.60645,407.68312 C 164.60644,393.83947 167.25935,380.86013 172.56517,368.74503 C 179.37435,353.1692 188.77659,345.38124 200.77192,345.38112 C 212.77069,345.38124 222.17469,353.1692 228.98394,368.74503 C 234.28969,380.86013 236.94259,393.83947 236.94267,407.68312 C 236.94259,421.52688 234.28969,434.50622 228.98394,446.6212 C 222.17469,462.19362 212.77069,469.97983 200.77192,469.97983 C 188.77659,469.97983 179.37435,462.19362 172.56517,446.6212 C 167.25935,434.50622 164.60644,421.52688 164.60645,407.68312 L 164.60645,407.68312 z M 241.00389,467.21249 L 241.00389,461.67254 C 245.38726,461.32751 248.27078,460.40507 249.65445,458.90521 C 251.03811,457.40537 251.72994,454.40566 251.72996,449.90609 L 251.72996,365.45486 C 251.72994,360.95541 251.03811,357.9557 249.65445,356.45574 C 248.27078,354.956 245.38726,354.03356 241.00389,353.68841 L 241.00389,348.15374 L 282.53504,348.15374 C 287.72462,348.15386 291.93547,348.90378 295.1676,350.40352 C 297.70602,351.55493 300.64763,353.74661 303.99244,356.97858 C 309.64674,362.51687 312.47393,369.95804 312.474,379.30209 C 312.47393,389.68496 309.56048,397.70265 303.73366,403.35519 C 297.90671,409.00787 289.74378,411.83417 279.24486,411.83412 L 266.26902,411.83412 L 266.26902,449.90609 C 266.26899,454.86688 267.42205,458.0972 269.72819,459.59704 C 271.3442,460.63568 274.92131,461.32751 280.45953,461.67254 L 280.45953,467.21249 L 241.00389,467.21249 z M 266.26902,364.76302 L 266.26902,406.29945 L 273.53592,406.29945 C 288.5344,406.29951 296.03365,397.35849 296.03371,379.47637 C 296.03365,362.2845 290.03425,353.68852 278.03548,353.68841 C 270.19114,353.68852 266.26899,357.38006 266.26902,364.76302 L 266.26902,364.76302 z "
       style="font-size:173.0534668px;font-style:normal;font-weight:normal;fill:white;fill-opacity:1;stroke:none;stroke-width:11;stroke-linecap:butt;stroke-linejoin:miter;stroke-miterlimit:4;stroke-opacity:1;font-family:Pharmacy"
       id="text4613" />
    <path
       d="M 368.46875,339.375 C 363.63268,339.37521 357.95134,341.36841 354.3125,345.3125 C 354.22729,345.41515 354.14394,345.51933 354.0625,345.625 C 351.08163,349.10667 349.21877,354.01123 349.21875,358.65625 L 349.21875,457.25 C 349.21875,461.70805 350.71928,466.81333 354.125,470.53125 C 354.12499,470.54167 354.12499,470.55208 354.125,470.5625 C 357.86839,474.62025 363.6143,476.5 368.46875,476.5 L 425.96875,476.5 C 432.06881,476.5063 437.02029,471.5688 437.03125,465.46875 L 437.03125,432.59375 C 437.03428,429.65887 435.86974,426.84332 433.79446,424.76804 C 431.71918,422.69276 428.90363,421.52822 425.96875,421.53125 L 409.5625,421.53125 C 406.62762,421.52822 403.81207,422.69276 401.73679,424.76804 C 399.66151,426.84332 398.49697,429.65887 398.5,432.59375 L 398.5,437.96875 L 387.75,437.96875 L 387.75,377.90625 L 398.5,377.90625 L 398.5,383.28125 C 398.49697,386.21613 399.66151,389.03168 401.73679,391.10696 C 403.81207,393.18224 406.62762,394.34678 409.5625,394.34375 L 425.96875,394.34375 C 428.90363,394.34678 431.71918,393.18224 433.79446,391.10696 C 435.86974,389.03168 437.03428,386.21613 437.03125,383.28125 L 437.03125,350.4375 C 437.03428,347.50262 435.86974,344.68707 433.79446,342.61179 C 431.71918,340.53651 428.90363,339.37197 425.96875,339.375 L 368.46875,339.375 z M 466.90625,361.28125 C 460.8062,361.29221 455.8687,366.24369 455.875,372.34375 L 455.875,388.6875 L 442.28125,388.6875 C 436.18119,388.6812 431.22971,393.6187 431.21875,399.71875 L 431.21875,416.15625 C 431.21572,419.09113 432.38026,421.90668 434.45554,423.98196 C 436.53082,426.05724 439.34637,427.22178 442.28125,427.21875 L 455.875,427.21875 L 455.875,440.8125 C 455.88593,446.90036 460.81839,451.83282 466.90625,451.84375 L 483.34375,451.84375 C 489.44381,451.85005 494.39529,446.91255 494.40625,440.8125 L 494.40625,427.21875 L 508,427.21875 C 511.10749,427.2109 514.06809,425.89508 516.15625,423.59375 C 518.23708,425.88707 521.18465,427.20214 524.28125,427.21875 L 537.875,427.21875 L 537.875,440.8125 C 537.88596,446.91255 542.83744,451.85005 548.9375,451.84375 L 565.375,451.84375 C 571.46286,451.83282 576.39532,446.90036 576.40625,440.8125 L 576.40625,427.21875 L 590,427.21875 C 592.93488,427.22178 595.75043,426.05724 597.82571,423.98196 C 599.90099,421.90668 601.06553,419.09113 601.0625,416.15625 L 601.0625,399.71875 C 601.05154,393.6187 596.10006,388.6812 590,388.6875 L 576.40625,388.6875 L 576.40625,372.34375 C 576.41255,366.24369 571.47505,361.29221 565.375,361.28125 L 548.9375,361.28125 C 546.00262,361.27822 543.18707,362.44276 541.11179,364.51804 C 539.03651,366.59332 537.87197,369.40887 537.875,372.34375 L 537.875,388.6875 L 524.28125,388.6875 C 521.17376,388.69535 518.21316,390.01117 516.125,392.3125 C 514.04417,390.01918 511.0966,388.70411 508,388.6875 L 494.40625,388.6875 L 494.40625,372.34375 C 494.40928,369.40887 493.24474,366.59332 491.16946,364.51804 C 489.09418,362.44276 486.27863,361.27822 483.34375,361.28125 L 466.90625,361.28125 z M 475.125,407.09375 C 475.39085,407.38999 475.67251,407.67165 475.96875,407.9375 C 475.67251,408.20335 475.39085,408.48501 475.125,408.78125 C 474.86927,408.48583 474.59806,408.20419 474.3125,407.9375 C 474.59806,407.67081 474.86927,407.38917 475.125,407.09375 z M 557.15625,407.125 C 557.42294,407.41056 557.70458,407.68177 558,407.9375 C 557.70376,408.20335 557.4221,408.48501 557.15625,408.78125 C 556.8904,408.48501 556.60874,408.20335 556.3125,407.9375 C 556.60792,407.68177 556.88956,407.41056 557.15625,407.125 z "
       style="font-size:182.57653809px;font-style:normal;font-weight:normal;fill:black;fill-opacity:1;stroke:none;stroke-width:22.10000038;stroke-linecap:butt;stroke-linejoin:round;stroke-miterlimit:4;stroke-opacity:1;font-family:Bitstream Vera Sans"
       id="text10832" />
    <path
       d="M 368.46875,343.21875 C 364.42723,343.21892 360.03588,344.78506 357.15625,347.90625 C 357.0923,347.97791 357.02978,348.05084 356.96875,348.125 C 354.51784,350.98768 353.06251,354.86609 353.0625,358.65625 L 353.0625,457.25 C 353.0625,461.0038 354.25247,465.00634 356.9375,467.9375 C 356.94788,467.94795 356.9583,467.95837 356.96875,467.96875 C 359.9165,471.16404 364.37255,472.65625 368.46875,472.65625 L 425.96875,472.65625 C 429.94748,472.66622 433.18021,469.44748 433.1875,465.46875 L 433.1875,432.59375 C 433.18021,428.61502 429.94748,425.39628 425.96875,425.40625 L 409.5625,425.40625 C 405.58377,425.39628 402.35104,428.61502 402.34375,432.59375 L 402.34375,441.8125 L 383.875,441.8125 L 383.875,374.0625 L 402.34375,374.0625 L 402.34375,383.28125 C 402.33895,385.19725 403.09795,387.03616 404.45277,388.39098 C 405.80759,389.7458 407.6465,390.5048 409.5625,390.5 L 425.96875,390.5 C 427.88475,390.5048 429.72366,389.7458 431.07848,388.39098 C 432.4333,387.03616 433.1923,385.19725 433.1875,383.28125 L 433.1875,350.4375 C 433.1923,348.5215 432.4333,346.68259 431.07848,345.32777 C 429.72366,343.97295 427.88475,343.21395 425.96875,343.21875 L 368.46875,343.21875 z M 367.90625,357.5 C 367.94622,357.45668 367.39905,357.62505 368.46875,357.625 L 418.78125,357.625 L 418.78125,376.09375 L 416.75,376.09375 L 416.75,366.875 C 416.75997,362.89627 413.54123,359.66354 409.5625,359.65625 L 376.6875,359.65625 C 372.70877,359.66354 369.49003,362.89627 369.5,366.875 L 369.5,449.03125 C 369.50728,452.99778 372.72097,456.21147 376.6875,456.21875 L 409.5625,456.21875 C 413.52903,456.21147 416.74272,452.99778 416.75,449.03125 L 416.75,439.78125 L 418.78125,439.78125 L 418.78125,458.25 L 368.46875,458.25 C 367.20859,458.25 367.53435,458.15699 367.5625,458.1875 C 367.57305,458.19902 367.46875,458.36968 367.46875,457.25 L 367.46875,358.65625 C 367.46875,358.0635 367.43752,358.04748 367.90625,357.5 z M 466.90625,365.125 C 462.92752,365.13229 459.70878,368.36502 459.71875,372.34375 L 459.71875,392.53125 L 442.28125,392.53125 C 438.30252,392.52128 435.06979,395.74002 435.0625,399.71875 L 435.0625,416.15625 C 435.0577,418.07225 435.8167,419.91116 437.17152,421.26598 C 438.52634,422.6208 440.36525,423.3798 442.28125,423.375 L 459.71875,423.375 L 459.71875,440.8125 C 459.72603,444.77903 462.93972,447.99272 466.90625,448 L 483.34375,448 C 487.32248,448.00997 490.55521,444.79123 490.5625,440.8125 L 490.5625,423.375 L 508,423.375 C 511.97873,423.36771 515.19747,420.13498 515.1875,416.15625 L 515.1875,399.71875 C 515.18022,395.75222 511.96653,392.53853 508,392.53125 L 490.5625,392.53125 L 490.5625,372.34375 C 490.5673,370.42775 489.8083,368.58884 488.45348,367.23402 C 487.09866,365.8792 485.25975,365.1202 483.34375,365.125 L 466.90625,365.125 z M 548.9375,365.125 C 547.0215,365.1202 545.18259,365.8792 543.82777,367.23402 C 542.47295,368.58884 541.71395,370.42775 541.71875,372.34375 L 541.71875,392.53125 L 524.28125,392.53125 C 520.31472,392.53853 517.10103,395.75222 517.09375,399.71875 L 517.09375,416.15625 C 517.08378,420.13498 520.30252,423.36771 524.28125,423.375 L 541.71875,423.375 L 541.71875,440.8125 C 541.72604,444.79123 544.95877,448.00997 548.9375,448 L 565.375,448 C 569.34153,447.99272 572.55522,444.77903 572.5625,440.8125 L 572.5625,423.375 L 590,423.375 C 591.916,423.3798 593.75491,422.6208 595.10973,421.26598 C 596.46455,419.91116 597.22355,418.07225 597.21875,416.15625 L 597.21875,399.71875 C 597.21146,395.74002 593.97873,392.52128 590,392.53125 L 572.5625,392.53125 L 572.5625,372.34375 C 572.57247,368.36502 569.35373,365.13229 565.375,365.125 L 548.9375,365.125 z M 474.125,379.53125 L 476.15625,379.53125 L 476.15625,399.71875 C 476.14628,403.69748 479.36502,406.93021 483.34375,406.9375 L 500.8125,406.9375 L 500.8125,408.96875 L 483.34375,408.96875 C 479.37722,408.97603 476.16353,412.18972 476.15625,416.15625 L 476.15625,433.59375 L 474.125,433.59375 L 474.125,416.15625 C 474.11771,412.17752 470.88498,408.95878 466.90625,408.96875 L 449.46875,408.96875 L 449.46875,406.9375 L 466.90625,406.9375 C 468.82225,406.9423 470.66116,406.1833 472.01598,404.82848 C 473.3708,403.47366 474.1298,401.63475 474.125,399.71875 L 474.125,379.53125 z M 556.125,379.53125 L 558.15625,379.53125 L 558.15625,399.71875 C 558.15145,401.63475 558.91045,403.47366 560.26527,404.82848 C 561.62009,406.1833 563.459,406.9423 565.375,406.9375 L 582.8125,406.9375 L 582.8125,408.96875 L 565.375,408.96875 C 561.39627,408.95878 558.16354,412.17752 558.15625,416.15625 L 558.15625,433.59375 L 556.125,433.59375 L 556.125,416.15625 C 556.11772,412.18972 552.90403,408.97603 548.9375,408.96875 L 531.5,408.96875 L 531.5,406.9375 L 548.9375,406.9375 C 552.91623,406.93021 556.13497,403.69748 556.125,399.71875 L 556.125,379.53125 z "
       style="font-size:182.57653809px;font-style:normal;font-weight:normal;fill:white;fill-opacity:1;stroke:none;stroke-width:14.39999962;stroke-linecap:butt;stroke-linejoin:round;stroke-miterlimit:4;stroke-opacity:1;font-family:Bitstream Vera Sans"
       id="text9058" />
    <path
       d="M 425.47584,432.0865 L 425.47584,464.94894 L 367.96378,464.94894 C 365.28559,464.94894 363.2166,464.15775 361.7568,462.57536 C 360.41956,461.11555 359.75095,459.16729 359.75096,456.73055 L 359.75096,358.14323 C 359.75095,355.95177 360.48085,354.0035 361.94067,352.29842 C 363.40047,350.71614 365.40817,349.92495 367.96378,349.92483 L 425.47584,349.92483 L 425.47584,382.78727 L 409.04462,382.78727 L 409.04462,366.35605 L 376.18218,366.35605 L 376.18218,448.51772 L 409.04462,448.51772 L 409.04462,432.0865 L 425.47584,432.0865 z M 482.84303,415.65528 L 482.84303,440.29933 L 466.41181,440.29933 L 466.41181,415.65528 L 441.76777,415.65528 L 441.76777,399.22406 L 466.41181,399.22406 L 466.41181,371.83313 L 482.84303,371.83313 L 482.84303,399.22406 L 507.49264,399.22406 L 507.49264,415.65528 L 482.84303,415.65528 z M 564.85984,415.65528 L 564.85984,440.29933 L 548.42862,440.29933 L 548.42862,415.65528 L 523.78457,415.65528 L 523.78457,399.22406 L 548.42862,399.22406 L 548.42862,371.83313 L 564.85984,371.83313 L 564.85984,399.22406 L 589.50945,399.22406 L 589.50945,415.65528 L 564.85984,415.65528 z "
       style="font-size:182.57653809px;font-style:normal;font-weight:normal;fill:#004e8c;fill-opacity:1;stroke:none;stroke-width:1px;stroke-linecap:round;stroke-linejoin:miter;stroke-opacity:1;font-family:Bitstream Vera Sans"
       id="text9050" />
  </g>
</svg>
